<svg id="Layer_1" data-name="Layer 1" xmlns="http://www.w3.org/2000/svg" viewBox="0 0 53.46 52.88"><defs><style>.cls-1{fill:#010101;fill-rule:evenodd;}</style></defs><path class="cls-1" d="M19.23,20.39a.47.47,0,0,1-.94,0c0-.64,0-1.27,0-1.87a.47.47,0,0,1,.47-.47.46.46,0,0,1,.47.46C19.22,19.12,19.22,19.75,19.23,20.39Zm0-3.75a.47.47,0,0,1-.47.47.48.48,0,0,1-.47-.47c0-.66,0-1.29,0-1.87a.47.47,0,0,1,.47-.47.46.46,0,0,1,.47.46C19.2,15.35,19.21,16,19.21,16.64Zm0-3.75a.47.47,0,0,1-.47.47.48.48,0,0,1-.47-.47c0-.76,0-1.4,0-1.87a.47.47,0,0,1,.47-.47.45.45,0,0,1,.47.46C19.18,11.48,19.19,12.12,19.19,12.89Zm0,33.23a.47.47,0,1,1-.93,0c0-.42,0-1,0-1.86a.47.47,0,0,1,.48-.46.48.48,0,0,1,.46.48C19.21,45.05,19.19,45.7,19.17,46.12Zm.07-3.76a.45.45,0,0,1-.47.46.47.47,0,0,1-.47-.47c0-.58,0-1.21,0-1.87a.48.48,0,0,1,.47-.47.47.47,0,0,1,.47.47C19.25,41.15,19.24,41.78,19.24,42.36Zm0-3.75a.47.47,0,0,1-.94,0V36.73a.48.48,0,0,1,.47-.47.47.47,0,0,1,.47.47Zm0-3.76a.47.47,0,1,1-.93,0V33a.45.45,0,0,1,.46-.47.47.47,0,0,1,.47.47Zm0-3.75a.47.47,0,0,1-.94,0V29.23a.47.47,0,0,1,.94,0Zm0-3.75a.47.47,0,0,1-.47.47.48.48,0,0,1-.47-.47V25.48a.47.47,0,0,1,.94,0Z" transform="translate(-3.27 -8.56)"/><path class="cls-1" d="M43.28,48.12a.48.48,0,0,1-.48-.46.47.47,0,0,1,.46-.48l1.87,0a.46.46,0,0,1,.48.45.48.48,0,0,1-.45.49ZM47,48a.46.46,0,0,1-.48-.46.47.47,0,0,1,.46-.48l1.87,0a.47.47,0,0,1,.48.46.46.46,0,0,1-.46.48L47,48ZM50.77,48a.47.47,0,0,1,0-.94l1.88,0a.47.47,0,0,1,0,.94l-1.88,0Zm3.74,0a.48.48,0,0,1-.46-.48.46.46,0,0,1,.47-.46c.83,0,1.4,0,1.63.06a.47.47,0,0,1,.39.54A.47.47,0,0,1,56,48,14.14,14.14,0,0,0,54.51,47.93Zm-19.78.44a.47.47,0,0,1-.49-.45.48.48,0,0,1,.46-.48l1.88,0a.48.48,0,0,1,.48.46.48.48,0,0,1-.46.48Zm3.74-.09a.47.47,0,0,1-.48-.46.48.48,0,0,1,.46-.48l1.16,0a.47.47,0,0,1,.48.46.46.46,0,0,1-.45.48l-1.17,0ZM4.64,59.75A.47.47,0,0,1,4,59.59.46.46,0,0,1,4.15,59,12.45,12.45,0,0,0,5.51,57.8a.46.46,0,0,1,.66,0,.47.47,0,0,1,0,.67,13.72,13.72,0,0,1-1.51,1.26ZM7.52,57.2a.47.47,0,1,1-.64-.68l1.36-1.29a.47.47,0,0,1,.64.69Zm2.73-2.56a.46.46,0,0,1-.66,0,.48.48,0,0,1,0-.67L11,52.69a.47.47,0,0,1,.62.7Zm2.8-2.46a.47.47,0,0,1-.66-.06.46.46,0,0,1,.06-.66c.5-.42,1-.82,1.47-1.19a.47.47,0,0,1,.66.09.45.45,0,0,1-.09.65q-.7.56-1.44,1.17ZM16,49.94a.48.48,0,0,1-.65-.13.47.47,0,0,1,.14-.65,11.64,11.64,0,0,1,1.7-.95.47.47,0,1,1,.37.86A10.14,10.14,0,0,0,16,49.94Zm3.2-1.14a.46.46,0,0,1-.46-.47.45.45,0,0,1,.47-.46h.91a.47.47,0,0,1,0,.94c-.37,0-.68,0-.93,0Z" transform="translate(-3.27 -8.56)"/><path class="cls-1" d="M40.37,22a.47.47,0,1,1,.93,0s1.05,35.4.7,38a.48.48,0,0,1-.53.4.46.46,0,0,1-.4-.53C41.42,57.22,40.37,22,40.37,22Z" transform="translate(-3.27 -8.56)"/><path class="cls-1" d="M54.14,9.62l.09.06a1.74,1.74,0,0,1,.5.8,20.1,20.1,0,0,1,.7,3.63c1.17,9.23,1.6,30.82,1.09,33.58a5.6,5.6,0,0,1-1.19,2.2,29.73,29.73,0,0,1-3.86,3.82,63.42,63.42,0,0,1-7.89,5.73,6.83,6.83,0,0,1-2,.92c-1.36.17-23.73,1.55-33.09.91a14.93,14.93,0,0,1-3.66-.57,1.24,1.24,0,0,1-.78-.63A17.48,17.48,0,0,1,3.75,57c-.38-6.55-.7-22.27-.28-30.08A26.29,26.29,0,0,1,3.87,23a3,3,0,0,1,.21-.67l0-.06.09-.13C5.71,20.31,15.33,11,18.52,9.63a21.91,21.91,0,0,1,5.12-.71h.09c5.82-.38,15.23-.45,22-.2h.36a64.65,64.65,0,0,1,6.52.5l.24,0,.26.05a3.54,3.54,0,0,1,1,.28ZM37,23.05c-3.69.27-18.23.89-24.89,7.7-7.88,8-7.67,22.66-7.47,26.2a23,23,0,0,0,.24,2.74,3,3,0,0,0,.53.23,17.18,17.18,0,0,0,3.12.41c9.31.64,31.55-.73,32.91-.9a6.74,6.74,0,0,0,1.63-.8A60.69,60.69,0,0,0,50.86,53a27.17,27.17,0,0,0,3.73-3.69,4.52,4.52,0,0,0,1-1.78c.5-2.74.06-24.14-1.1-33.29a23.41,23.41,0,0,0-.56-3.14,2.8,2.8,0,0,0-.13-.38c-4.14,3.9-11.16,10.48-12.7,11.61a2.29,2.29,0,0,1-.77.32,22,22,0,0,1-3.3.41ZM23.79,9.85H23.7a21.44,21.44,0,0,0-4.81.63C16.05,11.7,8,19.36,5.51,22.11c6.67.2,23.72.56,31.46,0a24.15,24.15,0,0,0,2.84-.33,2.34,2.34,0,0,0,.75-.22c.81-.6,3.38-5-.75-8C36.36,11,26.58,9.71,23.79,9.85Z" transform="translate(-3.27 -8.56)"/><path class="cls-1" d="M28,45.25a.27.27,0,1,1-.26.48,7.61,7.61,0,0,0-2.27-.56,28.37,28.37,0,0,0-3.6-.16.45.45,0,0,1-.46-.47.47.47,0,0,1,.47-.47,28.45,28.45,0,0,1,3.7.41,7.83,7.83,0,0,1,2.42.77Z" transform="translate(-3.27 -8.56)"/><path class="cls-1" d="M28.21,47.77a.28.28,0,0,1,0-.55,9.39,9.39,0,0,1,2.23.28,13,13,0,0,1,2.14.72.47.47,0,1,1-.43.83,12.09,12.09,0,0,0-1.91-.83,8.77,8.77,0,0,0-2.05-.45Z" transform="translate(-3.27 -8.56)"/><path class="cls-1" d="M31.43,50.28l-1.11,1.94a1.55,1.55,0,0,1-1.78.69l-6.05-1.86a1.53,1.53,0,0,1-1.08-1.57l.17-2.23a.46.46,0,0,1,.33-.42.47.47,0,0,1,.5.15,9.19,9.19,0,0,0,4,2.12,9.19,9.19,0,0,0,4.49.49.47.47,0,0,1,.54.69Z" transform="translate(-3.27 -8.56)"/><path class="cls-1" d="M33.07,45.44a1.39,1.39,0,0,1,.31.67,3.48,3.48,0,0,1-.07,1.34,6.5,6.5,0,0,1-.84,2,2.66,2.66,0,0,1-.88.89,4.05,4.05,0,0,1-1.86.33,14.06,14.06,0,0,1-3.6-.66,14,14,0,0,1-3.35-1.48,3.87,3.87,0,0,1-1.35-1.32A2.48,2.48,0,0,1,21.2,46a6.34,6.34,0,0,1,.42-2.12,3.35,3.35,0,0,1,.69-1.15,1.51,1.51,0,0,1,.65-.38l.07-.71a3,3,0,0,0-.41-1.83,9.38,9.38,0,0,1-.92-7.6A9.47,9.47,0,1,1,34.78,43.53h0a3,3,0,0,0-1.36,1.28h0l-.35.62Zm-8.16-2a8.05,8.05,0,0,0-1.52-.17h-.2a.57.57,0,0,0-.3.23,2.78,2.78,0,0,0-.4.73A5.68,5.68,0,0,0,22.14,46a1.62,1.62,0,0,0,.12.78,2.93,2.93,0,0,0,1,1A13.17,13.17,0,0,0,26.4,49.1a13.31,13.31,0,0,0,3.35.61,3,3,0,0,0,1.4-.22,1.64,1.64,0,0,0,.53-.57,5.62,5.62,0,0,0,.72-1.68,3.14,3.14,0,0,0,.08-.83.55.55,0,0,0-.12-.36l-.13-.1,0,0a9.16,9.16,0,0,0-1.4-.74l-.16-.07A34,34,0,0,1,32.47,37l.65.23a2.64,2.64,0,0,0,2.76-.37,2.34,2.34,0,0,0,.55-2.92,1.78,1.78,0,0,0-2.22-.47A4.39,4.39,0,0,0,32,35.76c-.71-.28-1.37-.58-2-.88a12.4,12.4,0,0,0,.68-2.62,1.56,1.56,0,0,0-.36-1.2,1.82,1.82,0,0,0-1.54-.58,2.17,2.17,0,0,0-2.08,1.85A2.75,2.75,0,0,0,28,34.69a8.3,8.3,0,0,0,.9.62c-.43,1.16-1,2.47-1.52,3.67a21.8,21.8,0,0,1-2.45,4.41Zm4.82,1.37c-.57-.21-1.19-.41-1.81-.6s-1.35-.4-2-.55a32.56,32.56,0,0,0,2.29-4.24c.53-1.17,1.06-2.45,1.48-3.61.58.3,1.22.58,1.9.86a35.94,35.94,0,0,0-1.87,8.14ZM29.2,34.4a6.33,6.33,0,0,1-.63-.44c-.6-.48-1-1-.92-1.53a1.23,1.23,0,0,1,1.21-1,.89.89,0,0,1,.77.25.7.7,0,0,1,.14.52A11,11,0,0,1,29.2,34.4Zm3.66,1.7a3.36,3.36,0,0,1,1.65-1.79c.51-.17.87-.15,1.08,0a.87.87,0,0,1,.21.75,1.55,1.55,0,0,1-1,1.27,2.05,2.05,0,0,1-1.39-.07l-.57-.21Z" transform="translate(-3.27 -8.56)"/></svg>