<svg id="Layer_1" data-name="Layer 1" xmlns="http://www.w3.org/2000/svg" viewBox="0 0 107.23 81.63"><path d="M48,55.63H47c-.76.1-.76.46,0,.56h1C48.73,56.09,48.71,55.73,48,55.63Z" transform="translate(-1.38 -7.06)"/><path d="M43.75,55.63h-1c-.76.1-.76.46,0,.56h1C44.52,56.09,44.5,55.73,43.75,55.63Z" transform="translate(-1.38 -7.06)"/><path d="M39.53,55.63h-1c-.76.1-.76.46,0,.56h1C40.3,56.09,40.29,55.73,39.53,55.63Z" transform="translate(-1.38 -7.06)"/><path d="M34.57,50.34v1.2c.1,1,.46.93.56,0v-1.2C35,49.4,34.67,49.39,34.57,50.34Z" transform="translate(-1.38 -7.06)"/><path d="M34.57,54.28v1.2c.1,1,.46.94.56,0v-1.2C35,53.34,34.67,53.34,34.57,54.28Z" transform="translate(-1.38 -7.06)"/><path d="M77.74,39.38h.9c.72-.1.72-.45,0-.56h-.9C77,38.93,77,39.28,77.74,39.38Z" transform="translate(-1.38 -7.06)"/><path d="M81.69,39.38h.91c.71-.1.71-.45,0-.56h-.91C81,38.93,81,39.28,81.69,39.38Z" transform="translate(-1.38 -7.06)"/><path d="M85.65,39.38h.9c.72-.1.71-.45,0-.56h-.9C84.92,38.93,84.94,39.28,85.65,39.38Z" transform="translate(-1.38 -7.06)"/><path d="M88.22,36.78v.91c.11.72.47.7.57,0v-.91C88.69,36.07,88.33,36.07,88.22,36.78Z" transform="translate(-1.38 -7.06)"/><path d="M88.79,32.83c-.1-.71-.46-.71-.57,0v.91c.11.72.47.7.57,0Z" transform="translate(-1.38 -7.06)"/><path d="M88.79,28.88c-.1-.71-.46-.72-.57,0v.9c.11.72.47.71.57,0Z" transform="translate(-1.38 -7.06)"/><path d="M74.25,39.26a.42.42,0,0,0,.21.12H75c.38-.1.37-.46,0-.57h-.36A19.93,19.93,0,1,0,38.71,25.16l-.57.36c.15-.5.12-1-.38-1.14-.73-.21-1.19,1.16-1.37,1.88-.88.42-10.62,5-11.15,5.22A3.72,3.72,0,0,1,24,31.3c-.24-.95-.62-1.61-1.15-1.62a43.63,43.63,0,0,0-6.55-.82c-.29-.51-.35-.55-.24-1.58A2.17,2.17,0,0,0,18,25.84c.83-2.15-.51-4.85-1.43-6.32.82-.43,1.65-1.12,1.52-2s-.59-.7-1-.67a.92.92,0,0,1-1-.33c-.85-1.21-2.28-1.34-3.45.44a4.06,4.06,0,0,0-3,.25,2.94,2.94,0,0,0-1.35,2.17c-.4,2.26,0,3.27.7,3.8a12.63,12.63,0,0,0,1,.94A1.33,1.33,0,0,0,9.9,25a1.18,1.18,0,0,0,1.29,1.17c0,.58-.21,2.5-.21,3.08-4,.93-6.37,3.74-8.72,7-.42.6-.92,1.37-.87,1.66s.39.64.79,1c-.21.54-1.17,3.23.21,4.9a8.36,8.36,0,0,0,3.2,1.82c-.7,5.61-.67,5.24-.66,5.3,0,.51.39,1,1.16,1.31-.49,7.7-.82,29-.47,30.17.18.6,1.2.87,1.82,1,0,.39,0,.89,0,1.55a.65.65,0,0,0-.66.11c-.49.39-.36,2.69-.27,3.21a.48.48,0,0,0,.48.41c8.88,0,8.38,0,8.6-.05.21.11.56,0,8.62.05a.5.5,0,0,0,.47-.32c.25-.67.19-1.17-.15-1.4a2.17,2.17,0,0,0-1.09-.25,2.18,2.18,0,0,1-2-.94c-.52-.57-1.16-1.26-1.89-1,0-.51,0-1,0-1.5a4.32,4.32,0,0,0,2.58-.83c.68-.85-.1-21.62-.47-30.63.84-.41,1.26-.9,1.24-1.45-.28-2.7.69,6.63-1.27-12.2l1.4.16c.44,0,.76-.47,1-1.17a11,11,0,0,0,3.19.08c1.78-.41,8.46-6.92,9.71-8.12a7.48,7.48,0,0,0,1.83-.06,19.75,19.75,0,0,0,8.81,14.52,8.42,8.42,0,0,1,3.84,6.78,1.47,1.47,0,0,0,.21,2.81,1.47,1.47,0,0,0,.53,2.65A1.47,1.47,0,0,0,53,58.51h1.64a4,4,0,0,0,8,0h1.65a1.47,1.47,0,0,0,.82-2.68,1.47,1.47,0,0,0,.53-2.65,1.47,1.47,0,0,0,.09-2.85,8.53,8.53,0,0,1,3.89-6.76,20.08,20.08,0,0,0,4.64-4.31ZM10.59,25.72a1.27,1.27,0,0,1-.33-1.43c.26.19.71.49,1,.4a.9.9,0,0,0,.34-.2c.12.46,0,.65.18.72a.16.16,0,0,0,.16,0,5.81,5.81,0,0,0,.3-2.92c.63-1.88.74-2,2.1-2.15a4.88,4.88,0,0,0,1.93-.46c.88,1.43,2.21,4.07,1.43,6.08a1.89,1.89,0,0,1-1.13,1.15c-1.79.63-4.74-1.06-4.77-1.07a.17.17,0,0,0-.12,0,1.44,1.44,0,0,1-1.11-.07ZM16,28.85a21.4,21.4,0,0,0-4.71.32c0-.62.17-2.51.22-3a1,1,0,0,0,.24-.05,8.85,8.85,0,0,0,4.06,1.22c-.1.92-.07,1.1.19,1.54ZM2.6,43.62c-1.21-1.47-.44-3.85-.19-4.52a56.74,56.74,0,0,0,8.37,4.58c.11,0,.09-.17.35-.59v.74a.18.18,0,0,0,.23.15c.71-.3,3.88-.79,4.75.1a.92.92,0,0,1,.25.78,2.64,2.64,0,0,1-1.28,2,5.44,5.44,0,0,1-3.77.15c-1.88-.5-7.38-1.81-8.71-3.4Zm13,44.64a.2.2,0,0,1-.19.13H7a.2.2,0,0,1-.2-.17c-.15-.86-.11-2.71.17-2.93.61-.47,1,.95,1.68,1.26S10,86,10.33,85.41c1-1.15,1.87.61,2.68,1.19,1.21.86,3.26-.22,2.54,1.66ZM7.71,85.14c0-.69,0-1.25,0-1.68a16.86,16.86,0,0,0,2.69.2c0,.41,0,.87,0,1.3a2.31,2.31,0,0,0-.29.28c-.19.29-.77,1-1.19,1.07s-.78-.77-1.21-1.17Zm6.61-2.65c.22.52,1.39.7,1.95.77,0,.4,0,.95,0,1.69a.62.62,0,0,0-.65.11c-.23.18-.35.76-.36,1.72-.62-.13-1.46,0-2.06-.42s-1.47-2-2.49-1.57c0-.38,0-.77,0-1.14a4.6,4.6,0,0,0,1.62-.22c.35-.24,1.24-3.7,2-6.75-.24,2.52-.36,5,0,5.81Zm7.53,4.11c1.21.85,3.23-.24,2.53,1.66a.19.19,0,0,1-.18.13c-6.74,0-8,0-8.38,0,.23-.6.29-1.25-.29-1.51a3,3,0,0,1,.25-1.58c.91-.72,1.34,3,3.31.24,1-1.4,1.93.48,2.76,1.07Zm-5.31-1.46c0-.78,0-1.39,0-1.84a16,16,0,0,0,2.69,0c0,.5,0,1.09,0,1.64a1.24,1.24,0,0,0-.29.28c-.22.33-1,1.24-1.36,1.05s-.67-.8-1-1.15ZM23.76,37c-.18.65-.43,1-.72,1.05l-1.39-.17-.11,0-1.93-2.42a.15.15,0,0,0-.23.18l1.93,2.43s0,.2,0,.16h0c0,.19.27,2.55,1.28,12.18,0,.44-.39.85-1.17,1.22a20.45,20.45,0,0,1-6.85,1.26c-6,.28-8.25-.86-8.3-.86-1.25-.55-1-1.07-1.1-1.18.08-.39.2-1.39.67-5.1,1.88.68,3.86,1.17,5.27,1.54V48a.38.38,0,0,0,.38.38h6.55a.38.38,0,0,0,.39-.38V39.2a.4.4,0,0,0-.39-.39H11.52a.39.39,0,0,0-.38.39v3.41a3,3,0,0,0-.48.74L6.48,41.21a16,16,0,0,1,2.78-4.43.15.15,0,0,0-.22-.2,16.52,16.52,0,0,0-2.83,4.5,25.31,25.31,0,0,1-3.78-2.34c-.36-.3-.72-.6-.76-.85a6.78,6.78,0,0,1,.89-1.53c1.54-2.17,3.87-5.45,7.82-6.66,3.34-1,9.14-.49,12.5.28.36,0,.68.56.89,1.47a12.24,12.24,0,0,1,.29,2.91c0,.1-.28,2.46-.3,2.65Zm13.11-8.17a.17.17,0,0,0-.12,0c-.41.39-7.84,7.69-9.62,8.1a10.38,10.38,0,0,1-3.05-.08,14,14,0,0,0,0-5.27,2.6,2.6,0,0,0,1.25.13c.56-.25,10.79-5.05,11.23-5.25a.16.16,0,0,0,.08-.1c.11-.5.55-1.87,1-1.73a.27.27,0,0,1,.2.16c.15.32-.17,1-.19,1a.15.15,0,0,0,.24.15c.57-.4,2.83-1.85,3.17-1.26S39.59,26,39,26.13a.14.14,0,0,0-.05.25s1.19.93.82,1.83c-.3.75-2.17.71-2.86.63ZM65.44,57.05a1.18,1.18,0,0,1-1.18,1.18H53a1.18,1.18,0,0,1,0-2.36h11.3A1.18,1.18,0,0,1,65.44,57.05ZM66,54.4a1.17,1.17,0,0,1-1.17,1.17H52.43a1.18,1.18,0,1,1,0-2.35H64.79A1.17,1.17,0,0,1,66,54.4Zm.53-2.65a1.17,1.17,0,0,1-1.17,1.17H51.91a1.18,1.18,0,1,1,0-2.35H65.32A1.19,1.19,0,0,1,66.49,51.75ZM54.24,37.49a3.85,3.85,0,0,0,4.4-2.69,3.86,3.86,0,0,0,4.21,2.73C60.5,42.2,60.6,41.94,60.6,42v8.25H56.5V42c0-.08.11.18-2.26-4.54ZM55,29.88a3.85,3.85,0,0,0-2.61,1,2.46,2.46,0,0,1-1.07-2.69.16.16,0,1,0-.3-.08,2.78,2.78,0,0,0,1.14,3,3.8,3.8,0,0,0-.95,3.27A3.52,3.52,0,0,1,48,29.49a.16.16,0,0,0-.1-.22,4.12,4.12,0,0,1-1.28-7.34.16.16,0,0,0,.09,0,4.11,4.11,0,0,1,2.46-.68.15.15,0,0,0,.16-.15.14.14,0,0,0-.15-.16,4.47,4.47,0,0,0-2.49.63A4.11,4.11,0,0,1,51.12,16a3.86,3.86,0,0,0,1.37,2.74c.15.13.36-.11.2-.24a3.53,3.53,0,1,1,5.8-2.71V19a4,4,0,0,0-3.37,2.09A2.45,2.45,0,0,1,52.5,20a.16.16,0,1,0-.27.16A2.78,2.78,0,0,0,55,21.46,3.9,3.9,0,0,0,54.64,23,.16.16,0,0,0,55,23a3.69,3.69,0,0,1,3.54-3.69V26l0,0a3.87,3.87,0,0,1-6.6-2.73v-.09a.16.16,0,0,0-.15-.16h0a.15.15,0,0,0-.15.15,4,4,0,0,0,.09,1,2.44,2.44,0,0,1-2.67,1,.16.16,0,0,0-.08.31,3.11,3.11,0,0,0,2.85-1,4.2,4.2,0,0,0,6.76,1.81v7.31A3.53,3.53,0,1,1,55,30.2a.16.16,0,0,0,0-.32Zm13.38-4.63a2.46,2.46,0,0,1-2.68-1,4.25,4.25,0,0,0,.1-1,.16.16,0,0,0-.16-.16.16.16,0,0,0-.15.16A3.87,3.87,0,0,1,58.85,26l-.05,0V19.32A3.7,3.7,0,0,1,62.34,23a.16.16,0,0,0,.32,0,4.06,4.06,0,0,0-.32-1.56,2.75,2.75,0,0,0,2.72-1.35c.11-.17-.16-.33-.27-.16a2.43,2.43,0,0,1-2.62,1.16A4,4,0,0,0,58.8,19V15.78a3.53,3.53,0,1,1,5.8,2.71c-.15.13.05.37.2.24A3.86,3.86,0,0,0,66.17,16a4.13,4.13,0,0,1,4.41,5.54,4.45,4.45,0,0,0-2.49-.63.16.16,0,1,0,0,.31,4.15,4.15,0,0,1,2.45.68.16.16,0,0,0,.09,0,4.12,4.12,0,0,1-1.28,7.35.15.15,0,0,0-.1.21,3.53,3.53,0,0,1-3.15,4.92,3.81,3.81,0,0,0-1-3.27,2.77,2.77,0,0,0,1.14-3,.16.16,0,1,0-.3.08,2.46,2.46,0,0,1-1.07,2.69,3.85,3.85,0,0,0-2.61-1,.16.16,0,0,0,0,.31,3.53,3.53,0,1,1-3.52,3.54h0V26.41a4.2,4.2,0,0,0,6.77-1.82,3,3,0,0,0,2.84,1c.19-.11.13-.36-.07-.31Zm1.09,18.08a8.87,8.87,0,0,0-4,7H61V42.09l2.35-4.67A3.81,3.81,0,0,0,66,34.72a3.84,3.84,0,0,0,3.58-5.19,4.44,4.44,0,0,0,1.25-7.84,4.45,4.45,0,0,0-4.69-6,3.84,3.84,0,0,0-7.53-1,3.84,3.84,0,0,0-7.53,1,4.45,4.45,0,0,0-4.69,6,4.44,4.44,0,0,0,1.25,7.84,3.84,3.84,0,0,0,3.58,5.19,3.83,3.83,0,0,0,2.45,2.64l2.38,4.73v8.2c-4.43,0-4.11,0-4.4,0a8.75,8.75,0,0,0-4-7A19.47,19.47,0,0,1,39,29a1.33,1.33,0,0,0,1-.7c.35-.84-.34-1.64-.71-2,.89-.28,2.53-.94,2.06-1.74C41,24,39.69,24.62,39,25a19.62,19.62,0,0,1,35.55-9.33,19.39,19.39,0,0,1,3.3,14.85,19.67,19.67,0,0,1-8.45,12.82Z" transform="translate(-1.38 -7.06)"/><path d="M90.26,15.81a1.76,1.76,0,0,1-3.52,0,1.76,1.76,0,1,1,3.52,0" transform="translate(-1.38 -7.06)"/><path d="M90.88,27.8v1.71a.21.21,0,0,0,.21.21.21.21,0,0,0,.21-.21V27.8a.21.21,0,0,0-.21-.21A.21.21,0,0,0,90.88,27.8Z" transform="translate(-1.38 -7.06)"/><path d="M85.92,30.64V28.93a.21.21,0,0,0-.42,0v1.71a.21.21,0,0,0,.42,0Z" transform="translate(-1.38 -7.06)"/><path d="M92.35,29v1.06a.21.21,0,0,0,.21.21.21.21,0,0,0,.21-.21V29a.21.21,0,0,0-.21-.21A.21.21,0,0,0,92.35,29Z" transform="translate(-1.38 -7.06)"/><path d="M87.18,27.38v1.06a.21.21,0,0,0,.21.21.21.21,0,0,0,.22-.21V27.38a.21.21,0,0,0-.22-.21A.21.21,0,0,0,87.18,27.38Z" transform="translate(-1.38 -7.06)"/><path d="M38.7,45.26l.27-.82a.32.32,0,0,0-.11-.35l-.38-.3c-.24-.17,0-.4-.2-1.21-.08-.4.7-.58.48-1l-.38-.76c-.22-.43-.8.1-1.09-.21-.53-.61-.86-.59-.86-.88v-.49a.33.33,0,0,0-.22-.3l-.81-.27a.32.32,0,0,0-.35.11l-.3.39c-.17.24-.35,0-1.21.19-.42.09-.58-.69-1-.47l-.76.38a.35.35,0,0,0-.18.33c0,.39.16.58,0,.76-.61.57-.58.86-.87.86h-.49a.33.33,0,0,0-.3.23l-.27.81c-.14.45.64.49.62.91,0,.84.19,1,0,1.24l-.34.35a.31.31,0,0,0-.06.36l.39.76a.32.32,0,0,0,.33.18c.37,0,.58-.17.76,0,.57.63.84.59.86.88v.49a.35.35,0,0,0,.22.3l.81.27a.33.33,0,0,0,.36-.11l.3-.38c.17-.24.35,0,1.21-.2.41-.08.56.69,1,.48l.76-.38a.32.32,0,0,0,.17-.33l-.07-.48c0-.3.24-.29.73-1,.23-.36.89.08,1-.37Zm-2-1.1a2.57,2.57,0,1,1-1.64-3.24A2.58,2.58,0,0,1,36.74,44.16Z" transform="translate(-1.38 -7.06)"/><path d="M14.77,23.62a.4.4,0,0,0,.23-.5.36.36,0,1,0-.23.5Z" transform="translate(-1.38 -7.06)"/><path d="M16.34,22.5a.36.36,0,0,0,.41.26.36.36,0,0,0,.21-.45.36.36,0,0,0-.41-.26A.34.34,0,0,0,16.34,22.5Z" transform="translate(-1.38 -7.06)"/><path d="M16.43,23.22c-.59-.65-.63-.57-.11.09.14.16.46.6.49.64s0,.09,0,.18c-.21.36-.36.53-.33.55s.2-.11.45-.48c.05-.09.13-.2.05-.32S16.58,23.39,16.43,23.22Z" transform="translate(-1.38 -7.06)"/><path d="M14,21.73c.17-.06.25,0,.27,0s-.08-.15-.31-.1c-.48.14-.62.59-.55.61S13.62,21.83,14,21.73Z" transform="translate(-1.38 -7.06)"/><path d="M15.88,21.11a.37.37,0,0,1,.15-.17c.26-.24.59-.08.62-.14s0-.11-.25-.14-.57.22-.57.38S15.87,21.12,15.88,21.11Z" transform="translate(-1.38 -7.06)"/><path d="M15.67,25.84c.62-.05,1-.45.89-.5s-.12.06-.33.17c-.46.28-.92.17-.94.24S15.41,25.85,15.67,25.84Z" transform="translate(-1.38 -7.06)"/><path d="M17.49,30.68a4.25,4.25,0,0,1-5,1.15,12.45,12.45,0,0,1-2-1.16s.09.18.38.45c2.16,2,5.45,1.66,6.72-.35.21-.33.26-.53.24-.54S17.73,30.39,17.49,30.68Z" transform="translate(-1.38 -7.06)"/><path d="M3.84,37.92c-.52-.52-.73-.82-.78-.79s.11.38.61.95a4.42,4.42,0,0,0,2.56,1.57,13.11,13.11,0,0,1-2.39-1.73Z" transform="translate(-1.38 -7.06)"/><path d="M84,27a.4.4,0,0,0,.39.31h.71a.39.39,0,0,0,.4-.4V25.29H88v1.3a.27.27,0,0,0,.27.26h.52a.27.27,0,0,0,.27-.26v-1.3h2.45v1.57a.39.39,0,0,0,.4.4h.71A.39.39,0,0,0,93,27l.66-2.81a1.25,1.25,0,0,0-1.22-1.54h-1V12.2a.15.15,0,0,0,0-.07c-.19-.35-1.79-3.36-2.92-3.36s-2.76,3-2.94,3.35a.17.17,0,0,0,0,.07v10.4h-1a1.25,1.25,0,0,0-1.22,1.53Zm1.83-14.58c.15,0,.37,0,.72,0,.51,0,1.19,0,1.92,0,1.58,0,2.31,0,2.65-.05V22.59H85.86Zm-2,10.88a1,1,0,0,1,.75-.36h7.81a1,1,0,0,1,.75.36,1,1,0,0,1,.19.82l-.66,2.81a.1.1,0,0,1-.1.08h-.71a.09.09,0,0,1-.1-.1V25.14a.15.15,0,0,0-.15-.15H85.38a.15.15,0,0,0-.15.15v1.72a.09.09,0,0,1-.1.1h-.71a.1.1,0,0,1-.1-.08l-.65-2.82a1,1,0,0,1,.18-.81Z" transform="translate(-1.38 -7.06)"/><path d="M108.27,51.74c-.63-1.2-2.06-2-2.16-3.22s1.14-2.36.93-3.68A2.73,2.73,0,0,0,105.46,43c-.71-.35-1.51-.55-2.2-.91a2.48,2.48,0,0,1-1.39-1.65c-.13-1,.67-1.92.63-3a2.7,2.7,0,0,0-2-2.28c-1.07-.34-2.19-.22-4.43,0l-1.56.16a3.34,3.34,0,0,0-2.5,1c-.84,1.16,0,2.69-.15,3.92-.17,1.64-1.82,2.76-2.56,4.31A4.46,4.46,0,0,0,89.16,48a12.65,12.65,0,0,0-4,5.44c0,.05,0,.09,0,.15l.11.32-.32.78-4.73-3c-.06-.69-.25-2.45-.85-2.12a.83.83,0,0,0-.41.71c-.4-.49-1.09-1.25-1.55-1.25h0a.38.38,0,0,0-.33.18.58.58,0,0,0-.09.48c.1.46.7.89,1,1.09-.59.62-1,1.45-.38,2.06a2.64,2.64,0,0,0,1.49.83c1.28,1.76,5.38,6.94,7.57,6.85a1.83,1.83,0,0,0,1.54-1.1c-.46,4.92,0,.12-.42,4.56-1.25.29-8.33,2-9.77,4.6C77,70.24,76.42,81.87,77,83a.87.87,0,0,0,.43.39c0,.44,0,.94,0,1.23-1.09-.41-1.89,1.12-2.6,1.63s-2,.2-2.6.61c-.36.25-.41.76-.15,1.47a.51.51,0,0,0,.48.33c26.54,0,20,0,32.07,0a.6.6,0,0,0,.6-.61V72.78a.6.6,0,0,0-.6-.6H99.54a5.86,5.86,0,0,0,.5-.33c2.6-2.28,1-6.25.82-6.71.07-.14.06-.1,0-1a3.12,3.12,0,0,0,1.79,0c1.76-.5,2.59-2.68,2.55-6.64,3.19-1.37,4-4.09,3.08-5.78ZM94.12,38.45a4.16,4.16,0,0,1,.46-.75,1.6,1.6,0,0,1,1.65-.57,5,5,0,0,0,.5,2.95A.65.65,0,0,0,96.5,40c-.24,0-.35,0-.35.07s.11.09.28.17a.92.92,0,0,1,.43.24c.15.11.23.18.28.16a2.74,2.74,0,0,0,1.62.84,1.15,1.15,0,0,1,.86.2,1.39,1.39,0,0,1-.17,1.83,1.47,1.47,0,0,1-1,.27c-.05,0-.08,0-.17,0-1.2.53-3.33,1.15-4.29.26C92.63,42.87,93.36,40,94.12,38.45Zm4,5.72V46.5a2.77,2.77,0,0,1-4,1.2c-.7-.38-.77-.81.1-1.36,0,0,0,0,0,0,.51-.32.32.07.36-1.58a6.45,6.45,0,0,0,3.49-.58Zm-11.55,16c-2.09.09-6.4-5.41-7.36-6.78a.14.14,0,0,0-.12-.06,2.37,2.37,0,0,1-1.37-.76.67.67,0,0,1-.21-.51,2.25,2.25,0,0,1,.72-1.26.12.12,0,0,0,0-.12.14.14,0,0,0-.07-.11c-.25-.15-.93-.61-1-1a.33.33,0,0,1,.05-.24.1.1,0,0,1,.1-.06h0c.37,0,1.18.92,1.6,1.49a.14.14,0,0,0,.26-.11s-.12-.67.23-.88a4.4,4.4,0,0,1,.44,2,.14.14,0,0,0,.07.11C85.19,55.17,84.9,55.07,85,55s.09-.12.39-.79a4.12,4.12,0,0,0,3,2c0,1.53-.32,3.88-1.84,3.94ZM80.53,83.59c0,.52,0,1.12,0,1.37a14.93,14.93,0,0,1-1.16,1.22c-.44.11-1.12-.75-1.37-1.13a2.2,2.2,0,0,0-.31-.28c0-.21,0-.76,0-1.27a7.67,7.67,0,0,0,2.82.09Zm-4,4.74,0,0h-4a.24.24,0,0,1-.21-.14c-.73-2,1.39-.84,2.65-1.74.65-.45,1.34-1.65,2.08-1.65h0a1,1,0,0,1,.76.46A3.3,3.3,0,0,0,79,86.42c-.78.31-1.75.08-2.29.45-.36.24-.41.75-.15,1.46ZM86,88.19h0a.21.21,0,0,1-.21.18H77.05a.24.24,0,0,1-.21-.14C76,86,78.65,87.78,80.13,86a3.08,3.08,0,0,1,.54-.63c.4-.35.82-.64,1.27-.38h0c.33.19.36.35.64.7,1.93,2.43,2.27-1.28,3.25-.53.29.23.33,2.17.18,3.07Zm-3.85-3.71A10.25,10.25,0,0,0,85,84c0,.37,0,.73,0,1-.35.35-.71,1-1,1.16s-1.17-.72-1.43-1.12a2.56,2.56,0,0,0-.35-.31,1.86,1.86,0,0,1,0-.26Zm4,.56a.65.65,0,0,0-.85-.25c0-.32,0-.6,0-.84a7.58,7.58,0,0,0,.86-.3Zm18.49-12.58a.31.31,0,0,1,.31.31V88a.31.31,0,0,1-.31.31H86.43V83.52l.14-.08c.58-.41,1.34-8.94,1.51-11Zm-2.07-8.6c-3.06.88-6.47-4.2-8-7a.14.14,0,0,0-.13-.07s-1.78-.06-2.38-1a1.63,1.63,0,0,1,0-1.54.7.7,0,0,1,.74-.49h0a3.14,3.14,0,0,1,1.5.75c.18.1.33,0,.15-.28v-.94a4,4,0,0,1,.88,1.65c0,.08,5,4.41,4.89,4.29a.15.15,0,0,0,.24-.12l-.06-1.24a9.68,9.68,0,0,0,4.47-.44h0c0,3.86-.71,6-2.34,6.42Zm-2.16-6.29A9.14,9.14,0,0,0,99.59,55a.15.15,0,0,0-.2-.06.15.15,0,0,0,0,.2,8.71,8.71,0,0,1,.78,2.59l.06,1.07-4.54-4c-.12-.36-.55-1.61-1.15-1.87V52.4a.41.41,0,0,0-.41-.41H90.39a.41.41,0,0,0-.4.41v5.31a.4.4,0,0,0,.4.41h3.69a.41.41,0,0,0,.41-.41v-.45c1.26,2.32,3.6,5.79,6.07,6.75,0,0,.06.87.07,1-.11,1.32-9.58.27-11.4-.25-.45.16-6.16,2.28-7.12,3.94s-1.35,14.25-.81,15.66a1.65,1.65,0,0,0,.58.15v.13a1.34,1.34,0,0,0-1,.18c0-.75-.81-13.06,1-16.25.91-1.58,5.61-3.44,6.94-3.94-.67-.24-.79-.41-.83-.53s.73-7.89.73-7.92L89.52,54a.15.15,0,0,0-.28-.1l-.75,2a3.81,3.81,0,0,1-3-2.1c0-.11-.08-.21-.11-.29a12.16,12.16,0,0,1,4-5.39,9.44,9.44,0,0,1,4.28-1.74.92.92,0,0,0-.35.71c0,.79,1.55,1.24,2.34,1.24a2.87,2.87,0,0,0,2.65-1.58c4.46,1.46,5.59,5.18,6.74,9.71l.12.46a9,9,0,0,1-4.81.6Z" transform="translate(-1.38 -7.06)"/><path d="M94.62,42.41c.14,0,.19,0,0-.15a.35.35,0,0,1-.16-.18c-.05-.08.11-.22.34-.52.34-.51.2-.58-.2-.15s-.33.4-.36.48A.36.36,0,0,0,94.62,42.41Z" transform="translate(-1.38 -7.06)"/><path d="M94.67,43.12c-.18,0-.28-.09-.32,0s0,.16.22.28c.54.22.93,0,.88-.12s-.13,0-.32-.05A.93.93,0,0,1,94.67,43.12Z" transform="translate(-1.38 -7.06)"/><path d="M94.6,39.16a.75.75,0,0,1,.31.25c.1.12.15.19.21.18s.09-.12,0-.32a.94.94,0,0,0-.42-.34c-.22-.06-.32,0-.32.06S94.46,39.08,94.6,39.16Z" transform="translate(-1.38 -7.06)"/><path d="M94.24,40.47c.15,0,.33-.09.4-.32s0-.44-.12-.49-.33.09-.4.31S94.09,40.42,94.24,40.47Z" transform="translate(-1.38 -7.06)"/><path d="M96.23,41.5c.15,0,.33-.09.4-.31s0-.45-.12-.5-.33.09-.4.31S96.09,41.45,96.23,41.5Z" transform="translate(-1.38 -7.06)"/></svg>