<svg id="Layer_1" data-name="Layer 1" xmlns="http://www.w3.org/2000/svg" viewBox="0 0 106.21 81.83"><path d="M87.4,72l-.83.44c-.61.44-.45.76.25.5l.85-.45c.31-.22.42-.41.36-.51S87.76,71.86,87.4,72Z" transform="translate(-1.89 -6.96)"/><path d="M90.93,69.87l-.8.51c-.57.5-.38.8.3.47l.8-.52c.29-.25.38-.43.32-.53S91.27,69.71,90.93,69.87Z" transform="translate(-1.89 -6.96)"/><path d="M94.26,67.46l-.75.57c-.26.27-.34.47-.27.57s.28.07.61-.13l.76-.58c.26-.27.34-.47.27-.56S94.59,67.27,94.26,67.46Z" transform="translate(-1.89 -6.96)"/><path d="M97.37,64.77l-.69.64c-.24.3-.31.5-.23.59s.3,0,.6-.17l.7-.65c.25-.29.3-.49.22-.58S97.68,64.56,97.37,64.77Z" transform="translate(-1.89 -6.96)"/><path d="M105.65,51.83c.06-.32.09-.64.13-1,0-.71-.36-.83-.55-.06,0,.31-.08.63-.13.93C105.09,52.55,105.45,52.51,105.65,51.83Z" transform="translate(-1.89 -6.96)"/><path d="M105.82,47.64c0-.32-.06-.64-.1-1-.18-.69-.54-.72-.55.08,0,.31.07.62.1.93C105.43,48.47,105.78,48.35,105.82,47.64Z" transform="translate(-1.89 -6.96)"/><path d="M104.49,43.69c.33.68.68.59.54-.16l-.3-.91c-.33-.7-.66-.55-.53.18Z" transform="translate(-1.89 -6.96)"/><path d="M102.93,39.93c.45.6.77.44.49-.26-.16-.28-.3-.57-.47-.84-.48-.59-.78-.4-.48.29C102.64,39.38,102.78,39.66,102.93,39.93Z" transform="translate(-1.89 -6.96)"/><path d="M100.62,36.58c.58.49.84.26.43-.36l-.64-.72c-.58-.51-.81-.25-.41.37Z" transform="translate(-1.89 -6.96)"/><path d="M97.32,32.69c-.33-.2-.54-.23-.61-.13s0,.3.27.57l.73.58c.65.38.89.12.36-.43Z" transform="translate(-1.89 -6.96)"/><path d="M49.1,23.29l.87.42c.73.24.84-.1.24-.51l-.85-.41C48.66,22.55,48.47,22.86,49.1,23.29Z" transform="translate(-1.89 -6.96)"/><path d="M46.34,21.63c.68.37.85.05.32-.45l-.77-.55c-.65-.35-.89-.09-.33.45Z" transform="translate(-1.89 -6.96)"/><path d="M43.13,19c.61.49.82.21.4-.39l-.64-.68c-.28-.24-.49-.3-.58-.23s-.05.28.17.59Z" transform="translate(-1.89 -6.96)"/><path d="M96.28,23.07l-42.35.14a1.5,1.5,0,0,0-1.5,1.52l0,6.18H44.3a2,2,0,0,0-1.94,1.95V75.1a2,2,0,0,0,2,2H82.14a2,2,0,0,0,2-2V54.24l7.27,0a2.94,2.94,0,0,0,2.92-2.94l-.13-25.77a2.14,2.14,0,0,1,2.13-2.15.15.15,0,0,0,.15-.15.15.15,0,0,0-.15-.14ZM83.81,33c0,.27,0-2.77,0,42.07a1.65,1.65,0,0,1-1.65,1.66H44.31a1.66,1.66,0,0,1-1.66-1.66V32.86a1.65,1.65,0,0,1,1.65-1.65H85.06A2.47,2.47,0,0,0,83.81,33Zm10-7.52L94,51.28a2.63,2.63,0,0,1-2.63,2.65s-2.55.12-2.55-2.17L89,33.22a2.3,2.3,0,0,0-2.28-2.3h-.44c-.07,0,1.32,0-33.49,0l0-6.2a1.2,1.2,0,0,1,1.21-1.22l41.2-.13a2.43,2.43,0,0,0-1.27,2.14Z" transform="translate(-1.89 -6.96)"/><path d="M55.51,67.75h-6.9a.86.86,0,0,0-.86.86v4.58a.86.86,0,0,0,.86.86h6.9a.86.86,0,0,0,.86-.86V68.61A.86.86,0,0,0,55.51,67.75Zm.58,5.44a.58.58,0,0,1-.58.58h-6.9a.58.58,0,0,1-.58-.58V68.62a.58.58,0,0,1,.58-.58h6.9a.58.58,0,0,1,.58.58Z" transform="translate(-1.89 -6.96)"/><path d="M66.09,67.75H59.18a.87.87,0,0,0-.86.86v4.58a.87.87,0,0,0,.86.86h6.91a.86.86,0,0,0,.85-.86V68.61A.86.86,0,0,0,66.09,67.75Zm.56,5.44a.57.57,0,0,1-.57.58h-6.9a.58.58,0,0,1-.58-.58V68.62a.58.58,0,0,1,.58-.58h6.9a.57.57,0,0,1,.57.58Z" transform="translate(-1.89 -6.96)"/><path d="M76.65,67.75h-6.9a.87.87,0,0,0-.87.86v4.58a.87.87,0,0,0,.87.86h6.9a.86.86,0,0,0,.86-.86V68.61A.86.86,0,0,0,76.65,67.75Zm.57,5.44a.57.57,0,0,1-.57.58h-6.9a.58.58,0,0,1-.58-.58V68.62a.58.58,0,0,1,.58-.58h6.9a.57.57,0,0,1,.57.58Z" transform="translate(-1.89 -6.96)"/><path d="M49.07,38.06V51.6a.83.83,0,0,0,.83.83H77.4a.84.84,0,0,0,.84-.83V38.06a.85.85,0,0,0-.84-.84H49.9A.84.84,0,0,0,49.07,38.06Zm28.88,0V51.6a.55.55,0,0,1-.55.54H49.9a.55.55,0,0,1-.55-.54V38.06a.55.55,0,0,1,.55-.55H77.4A.55.55,0,0,1,78,38.06Z" transform="translate(-1.89 -6.96)"/><path d="M67.58,49.17h3.71a.27.27,0,0,0,.2-.46l-4.56-4.55a.56.56,0,0,0-.79,0l-1.79,1.78Z" transform="translate(-1.89 -6.96)"/><path d="M56,49.17H67l-5.42-5.42a.57.57,0,0,0-.79,0l-5,5a.27.27,0,0,0,.2.46Z" transform="translate(-1.89 -6.96)"/><path d="M64,43.14a1.33,1.33,0,1,0-1.33-1.33A1.33,1.33,0,0,0,64,43.14Z" transform="translate(-1.89 -6.96)"/><path d="M46.68,33.9a1,1,0,1,0-1,1A1,1,0,0,0,46.68,33.9Z" transform="translate(-1.89 -6.96)"/><path d="M48.26,34.86a1,1,0,1,0-1-1A1,1,0,0,0,48.26,34.86Z" transform="translate(-1.89 -6.96)"/><path d="M50.79,34.86a1,1,0,1,0-.95-1A1,1,0,0,0,50.79,34.86Z" transform="translate(-1.89 -6.96)"/><path d="M48.82,57.07,48,59h1.62Z" transform="translate(-1.89 -6.96)"/><path d="M51.6,61.44a.37.37,0,0,0,.38-.36V55.91a.38.38,0,0,0-.38-.38H46a.37.37,0,0,0-.37.38v5.17a.36.36,0,0,0,.37.36Zm-4.68-1.23c1.77-4.09,1.49-3.79,1.93-3.83a.37.37,0,0,1,.35.24c1.58,3.74,1.55,3.64,1.55,3.71s-.1.27-.26.27a.29.29,0,0,1-.26-.17l-.39-.93h-2c-.39.9-.36,1-.49,1a.27.27,0,0,1-.4-.34Z" transform="translate(-1.89 -6.96)"/><path d="M53.47,56.51a.24.24,0,0,0,.24.24h28.5a.24.24,0,1,0,0-.48H53.71A.24.24,0,0,0,53.47,56.51Z" transform="translate(-1.89 -6.96)"/><path d="M82.21,57.92H53.71a.24.24,0,1,0,0,.47h28.5a.24.24,0,1,0,0-.47Z" transform="translate(-1.89 -6.96)"/><path d="M82.21,59.57H53.71a.23.23,0,0,0-.24.23.24.24,0,0,0,.24.24h28.5a.24.24,0,0,0,.24-.24A.23.23,0,0,0,82.21,59.57Z" transform="translate(-1.89 -6.96)"/><path d="M82.21,61.22H53.71a.23.23,0,0,0-.24.23.24.24,0,0,0,.24.24h28.5a.24.24,0,0,0,.24-.24A.23.23,0,0,0,82.21,61.22Z" transform="translate(-1.89 -6.96)"/><path d="M82.21,62.86H46.05a.24.24,0,0,0,0,.47H82.21a.24.24,0,1,0,0-.47Z" transform="translate(-1.89 -6.96)"/><path d="M77.43,64.74a.24.24,0,0,0-.24-.23H46.05a.24.24,0,0,0,0,.47H77.19A.24.24,0,0,0,77.43,64.74Z" transform="translate(-1.89 -6.96)"/><path d="M17,26.1a3,3,0,0,0-.21-.73,2.41,2.41,0,0,0-.18-.55s0,.2.05.59c0,.15.11.32.15.46s.07.29-.05.36c-.29.2-.51.13-.5.17s0,0,.14.06C16.69,26.49,17,26.34,17,26.1Z" transform="translate(-1.89 -6.96)"/><path d="M15.55,27.19a1.41,1.41,0,0,0,.6.19c.25,0,.37-.06.36-.09s-.13,0-.35-.05a1.22,1.22,0,0,1-.55-.17,2.13,2.13,0,0,0-.31-.16S15.34,27.05,15.55,27.19Z" transform="translate(-1.89 -6.96)"/><path d="M17.88,23c.19,0,.29.06.3,0s-.06-.11-.27-.17c-.5-.12-.86.1-.82.16S17.46,22.93,17.88,23Z" transform="translate(-1.89 -6.96)"/><path d="M14.54,23.42c.32-.13.67-.14.67-.2s-.09-.07-.27,0a1.66,1.66,0,0,0-.45.12c-.16.09-.22.16-.21.18S14.38,23.48,14.54,23.42Z" transform="translate(-1.89 -6.96)"/><path d="M17.65,24c-.14,0-.26.16-.26.35s.12.36.26.36.27-.16.27-.36S17.79,24,17.65,24Z" transform="translate(-1.89 -6.96)"/><path d="M14.78,24.47c0,.2.12.35.26.35s.26-.16.26-.35-.11-.35-.26-.35S14.78,24.27,14.78,24.47Z" transform="translate(-1.89 -6.96)"/><path d="M12.34,32.1c1.91,1.62,5.06,1.46,5.8-.53.12-.33.1-.51.08-.51s-.08.16-.23.44c-.8,1.46-3,2.09-5.55.47-.28-.18-.42-.28-.44-.25S12.08,31.88,12.34,32.1Z" transform="translate(-1.89 -6.96)"/><path d="M5.1,38.75c-.69-.45-1-.72-1.06-.67A5.38,5.38,0,0,0,6.88,40c.82.26,1.26.26,1.26.21a20.67,20.67,0,0,1-3-1.43Z" transform="translate(-1.89 -6.96)"/><path d="M39.31,25l-1.92.88h0l-4.25,1.94-.05,0-7.2,8.5A11.5,11.5,0,0,0,17.81,30a3.15,3.15,0,0,1-.61-1.48c1.79-1.21,1.71-5.05,1.65-6.13a1.61,1.61,0,0,0,1.33-1.07c.92-1.94-1-2-2.34-3.64-1.52-1.76-5.59-1.31-6.87.58-2.27,3.33-.35,5.82.07,6.29-.37.86.39,1.6,1.25,2a6.61,6.61,0,0,0,1,1.19A4.12,4.12,0,0,1,12.55,30c-5,.77-8.46,3.78-9.64,8.5a1.08,1.08,0,0,0-.05.2.14.14,0,0,0,0,.15,5.64,5.64,0,0,0,.56.5,11.46,11.46,0,0,0-.81,1.83c-.69,1.93-1.52,5.44.68,7.24a6.57,6.57,0,0,0,3.53,1.14c-.06.39-.26,1.75-.32,2.16s.38.79,1,1.07c-.69,10-1.35,20.6-1.43,30-.07.38.3.73.9,1,0,.27,0,.59,0,1a.68.68,0,0,0-.72.11c-.51.4-.42,2.79-.3,3.51a.52.52,0,0,0,.52.43h9.18a.51.51,0,0,0,.38-.18.55.55,0,0,0,.38.18h9.18a.53.53,0,0,0,.5-.34h0c.27-.74.21-1.27-.16-1.53-.65-.44-1.89,0-2.72-.64s-1.62-2.15-2.73-1.71v-.5a2.24,2.24,0,0,0,.93-.42.57.57,0,0,0,.21-.43c.44-1.8,1.05-26,1.07-30.24a.94.94,0,0,0,.47-.71L23.07,51c1.51-1.79,3.17-3.75,3.53-4.16a5.35,5.35,0,0,0,.7-.07c2.16-.41,7.47-7.48,8.3-8.45,1.17-.25,3.34-2.46,2.54-3.29a2.13,2.13,0,0,0-1-.6c1.18-1.39,1.57-1.84,1.59-1.9.57-2.13.78-2.9.85-3.16h0a.45.45,0,0,0,0-.08c.06-.23.27-1,.89-3.32a.85.85,0,0,0-1.16-1ZM12.57,26.39c-.06-.1-.09-.14-.15-.16s-1.38-.59-1.15-1.47a.49.49,0,0,1,.34-.4,1.11,1.11,0,0,1,.39,0c.56.17.71.51.95.51a.27.27,0,0,0,.16-.08c.09-.16.3-3.52,2.44-3.2.1.06.27.61.82.53A3.59,3.59,0,0,1,17.62,22a2.71,2.71,0,0,0,.94.39c.13,2.15-.1,5.8-2.21,6.2-1.61.31-2.88-.8-3.78-2.16Zm.93,1.54a3.44,3.44,0,0,0,2.59.95,2.37,2.37,0,0,0,.85-.22,3.39,3.39,0,0,0,.64,1.51c.2,2.4-4.76,2.5-4.8.11a.48.48,0,0,1,0-.12,3.92,3.92,0,0,0,.72-2.23ZM3.16,38.68s0-.09,0-.15c1.14-4.55,4.44-7.48,9.3-8.26,0,2.74,5.42,2.7,5.39,0a11.27,11.27,0,0,1,7.8,6.32l-3.54,4.18c-.16-1.42-.47-3.5-.76-4.81a.15.15,0,1,0-.29.07c.31,1.38.64,3.63.79,5,0,0-1.22,1.45-1.81,2.15a.51.51,0,0,0-.09-.16.43.43,0,0,0-.48-.2s-.53,0-1.42,1.56L8,44l.42-2.83A56,56,0,0,1,11,35.27c.09-.16-.17-.3-.26-.13A54.36,54.36,0,0,0,8.16,41a8.35,8.35,0,0,1-5-2.28Zm.34,9.48c-2.3-1.88-1.14-6.32.17-8.66a8.69,8.69,0,0,0,4.42,1.75c-.4,2.53-.43,3-.42,2.91a.12.12,0,0,0,.13.1l10.27.47c.23,0,.15,0,.43-.43.2-.31.91-1.34,1.19-1.11a.29.29,0,0,1,.11.25c0,.35-.46.63-.47.79a.16.16,0,0,0,.21.14c1.48-.35,4-1.08,4.13.65,0,.76-1.76,2.06-4.17,2.16-.54,0,.1,0-3.09.85-.07,0-.39.09-.48.13-3.22.81-9.86,2.09-12.44,0Zm3.31,3.56s.24-1.6.33-2.16a31.92,31.92,0,0,0,8.44-1l-.76.89-1.53,1.81a3.73,3.73,0,0,0-.86,2.24,18.11,18.11,0,0,1-4.69-1h0c-.58-.26-.9-.54-.89-.82ZM16.2,84.85c-.32.25-.38,1.26-.38,2-.72-.3-1.79,0-2.54-.55s-1.6-2.15-2.73-1.71v-.06c.83,0,1.47-.22,1.56-.65.82-4.37,1.65-10.54,2.59-19.3.15,8.11.29,14.63.56,18.65,0,.5.72.82,1.67,1v.56a.67.67,0,0,0-.73.11ZM16,57a3.38,3.38,0,0,1-2.44-5.55l1.36-1.6A6.1,6.1,0,0,0,20,54.19c-1.3,1.48-2,2.89-4.06,2.8ZM7.27,84.93c0-.25,0-.63,0-1a8.88,8.88,0,0,0,3,.6,1.35,1.35,0,0,1,0,.22C9.83,85,9,86.48,8.42,86.2c-.37-.18-.74-.9-1.15-1.27Zm8.39,3.56H6.49a.23.23,0,0,1-.24-.19c-.16-.94-.11-3,.19-3.22s.56,0,.84.28c1,1.23,1.31,1.73,2.52.32.86-1,1.15-1.43,2.58.14a5.7,5.7,0,0,0,.73.69c.9.64,2.22.27,2.76.67.35.3,0,1.06,0,1.1a.24.24,0,0,1-.24.21Zm6.66-2.67a5.7,5.7,0,0,0,.73.69c.89.64,2.19.29,2.72.65.34.23.18.84.05,1.19a.23.23,0,0,1-.22.15H16.42a.23.23,0,0,1-.23-.16h0A1.32,1.32,0,0,0,16.11,87a3.65,3.65,0,0,1,.27-1.94c1-.78,1.56,3.45,3.71.14.78-.89,1.43-.26,2.23.61Zm-2.13-1.09a2.49,2.49,0,0,0-.33.31c-.24.36-1,1.37-1.5,1.15s-.77-.93-1.15-1.26c0-.18,0-.44,0-.71a9.83,9.83,0,0,0,3-.09c0,.26,0,.47,0,.6Zm1-31.47,1.61-1.92.09.95c0,.53-1.18.84-1.7,1Zm6.06-6.75-.39.05c.53-.62,2.25-2.64,7.6-9a2.36,2.36,0,0,0,.41.6.94.94,0,0,0,.34.18c-5,6.43-7.11,8-8,8.14ZM37.92,35.25c.65.68-2.15,3.43-2.85,2.74a2,2,0,0,1-.53-1.21,2,2,0,0,1,3.38-1.53Zm-1.13-.86a2.28,2.28,0,0,0-2.46,2.89l-7.91,9.35c-.34.36-5.85,6.9-6.19,7.3a5.87,5.87,0,0,1-5.14-4.36l1-1.14c1-.26,2.31-.62,3.29-1a5.94,5.94,0,0,0,4.34-1.73A1.16,1.16,0,0,0,24,45h0c-.1-1.75-2.37-1.52-4.06-1,.31-.46,13.21-15.66,13.24-15.7a6.15,6.15,0,0,0,5.15,4.36Zm1.67-2a5.88,5.88,0,0,1-5.09-4.29l4-1.84a5.69,5.69,0,0,0,2.19,1.85Z" transform="translate(-1.89 -6.96)"/><path d="M44.91,11,28.84,7a.14.14,0,0,0-.14.24l6,6.71a.15.15,0,0,0,.14,0l2.7-.72c.59.44,2.79,2.08,2.82,2.09s.77-2.46,1-3.11l3.6-1a.14.14,0,0,0,0-.27Zm-3.78,1s-9.41-3.4-10-3.61l7.71,3.15c0,.14,0-.06.14.56.21.38.54.23.53-.16l0-.14,1,.39-5.57,1.49L29.22,7.36,44.3,11.12Z" transform="translate(-1.89 -6.96)"/><path d="M107.36,52.84h-8a.75.75,0,0,0-.76.75v7.23a.75.75,0,0,0,.76.74h1.18a1.64,1.64,0,0,0-.32.23l-.62.72c-.2.31-.24.52-.15.6s.29,0,.57-.24l.63-.72c.19-.3.23-.49.16-.58h6.59a.75.75,0,0,0,.75-.75V53.58a.75.75,0,0,0-.75-.74Zm.46,8a.45.45,0,0,1-.46.46h-8a.46.46,0,0,1-.46-.46V53.58a.47.47,0,0,1,.46-.46h8a.46.46,0,0,1,.46.46Z" transform="translate(-1.89 -6.96)"/><path d="M106.2,54.86a.86.86,0,0,0-1.72,0,.78.78,0,0,0,0,.16L102,56.54a.93.93,0,1,0,.15,1.59l2.33,1.42a.86.86,0,1,0,.27-.53l-2.27-1.38a.91.91,0,0,0-.06-.68l2.37-1.44a.85.85,0,0,0,1.4-.66Z" transform="translate(-1.89 -6.96)"/></svg>