<svg id="Layer_1" data-name="Layer 1" xmlns="http://www.w3.org/2000/svg" viewBox="0 0 99.08 96.29"><path d="M66.1,26.83c-.72-.44-1.51,0-1.44.7a1.69,1.69,0,0,0,.24.67c.47.9,1,1.8,1.56,2.67a1.29,1.29,0,0,0-1,.58,1.71,1.71,0,0,0-.73.48,1.15,1.15,0,0,0-.2.58.86.86,0,0,0-.43.93,2.2,2.2,0,0,0,.51.88c1.57,1.88,3,3.31,3,3.33l-.16.21a.3.3,0,0,0,.47.37c1-1.22,1.79-3.61,2.86-5a.29.29,0,0,0,.14-.17l.07-.08c1.26.87,4.18,2.89,5.28,3.6a2.23,2.23,0,0,0,2,.19l.47-.2a9.53,9.53,0,0,1-.62,4.48.3.3,0,1,0,.57.19,10.58,10.58,0,0,0,.64-5c.39-.27.79-.53,1.19-.78a.28.28,0,0,0,.09-.4.29.29,0,0,0-.41-.1c-.13.08-1.29.81-1.39.93l-.77.31a1.59,1.59,0,0,1-1.45-.14c-1.16-.74-4.36-3-5.47-3.73a.3.3,0,0,0-.37,0,1.7,1.7,0,0,0-.54-.88,1.83,1.83,0,0,0-.75-.38c-3-4-3-4.05-3.32-4.29Zm-.85.65a.22.22,0,0,1,.09-.21.49.49,0,0,1,.44.07c.24.15.2.15,2.85,3.73a6.13,6.13,0,0,0-1.39.3.3.3,0,0,0,0-.34,29,29,0,0,1-2-3.55Zm1.65,4,.09,0,0,0a1.12,1.12,0,0,0-.42.48l-.46-.37A1.34,1.34,0,0,1,66.9,31.47ZM65.62,32,67,33.17a.91.91,0,0,1,.27.59c-.18.15-.55,0-.67-.19s-.22-.25-.38-.39a7.42,7.42,0,0,0-.6-.48,1.34,1.34,0,0,0-.51-.25.59.59,0,0,1,.06-.16,1,1,0,0,1,.44-.27Zm4.18,0a1.92,1.92,0,0,1,.44.93,42.27,42.27,0,0,0-2.35,4.24c-1.1-1.18-1.68-1.8-2.85-3.21a1.54,1.54,0,0,1-.39-.61c0-.1,0-.28.18-.3a.57.57,0,0,1,.43.14,4.77,4.77,0,0,1,1,.91.34.34,0,0,1,.1.23.17.17,0,0,1-.12,0,.3.3,0,0,0-.39-.1.3.3,0,0,0-.11.41.66.66,0,0,0,1.2-.24.87.87,0,0,0,.75-.2.77.77,0,0,0,.12-.86,6.9,6.9,0,0,1,1,0,.74.74,0,0,1,0,.53.29.29,0,0,0,0,.42.3.3,0,0,0,.42,0c.37-.3.39-1.32-.08-1.53a3.63,3.63,0,0,0-1.26,0c-.39,0-.73-.21-.77-.39s.08-.26.21-.34a4.85,4.85,0,0,1,1.35-.35,1.8,1.8,0,0,1,.8.08,1.51,1.51,0,0,1,.39.23Z" transform="translate(-5.46 0.27)"/><path d="M79.92,93.31a.3.3,0,1,0,.4.44,1.83,1.83,0,0,1,1.22-.49c.06,0,.06,0,.19,0A.29.29,0,0,0,82,93a.3.3,0,0,0-.27-.31,2.37,2.37,0,0,0-1.83.63Z" transform="translate(-5.46 0.27)"/><path d="M100.52,44.68h0a.3.3,0,0,0-.29.3c0,1.71,0,3.48-.22,5.56a1.68,1.68,0,0,1-1.3,1.52c-1.85.38-4.41.81-7.82,1.3a.28.28,0,0,0-.25.34A.29.29,0,0,0,91,54c3.43-.5,6-.92,7.86-1.31a2.28,2.28,0,0,0,1.77-2c.17-2.1.24-3.88.23-5.61a.3.3,0,0,0-.3-.3Z" transform="translate(-5.46 0.27)"/><path d="M69.2,39.13a.3.3,0,0,0-.46.38c1.68,2,4.25,3.35,6.23,4.79.77.57,1.79.72,2.46,1.25a22.26,22.26,0,0,1,.19,5.37.3.3,0,0,0,.3.33.31.31,0,0,0,.3-.27,23.09,23.09,0,0,0-.15-5.15.37.37,0,0,0,.08-.18l.08-1.36a.3.3,0,0,0-.6,0l0,.69c-.71-.47-1.65-.66-2.28-1.12-2-1.44-4.5-2.74-6.11-4.69Z" transform="translate(-5.46 0.27)"/><path d="M81,52.53a1.14,1.14,0,0,0,.23.15c-.09.33.14.59.36.84a5.3,5.3,0,0,0,3.43,1.1A6.89,6.89,0,0,0,88,54a.28.28,0,0,0,.09.27.27.27,0,0,0,.24.08l1.58-.22a.3.3,0,0,0-.08-.59l-1.22.17a20.15,20.15,0,0,0-.36-4.54c1.75-.58,3.64-1.07,5.38-1.65h0A3.61,3.61,0,0,1,94.33,49a.28.28,0,0,0,.29.23.29.29,0,0,0,.29-.35,4.09,4.09,0,0,0-.82-1.75.28.28,0,0,0-.22-.1,28,28,0,0,0,.3-5.5.29.29,0,0,0-.29-.29.29.29,0,0,0-.3.3,28,28,0,0,1-.3,5.43c-1.89.62-5.39,1.58-5.58,1.74a4.45,4.45,0,0,0-2.92-1c-.18,0-.58.11-.64.8,0,.41.38.7.74.82a2.51,2.51,0,0,1,.56.29,3.37,3.37,0,0,1-2.24-.34,3.82,3.82,0,0,0-.87-.5c-.7-.21-1.35.32-1.16,1a1,1,0,0,0-.26,1.41A.91.91,0,0,0,81,52.53Zm.71-3c0-.1.24-.16.41-.11a3.5,3.5,0,0,1,.72.43A3.53,3.53,0,0,0,85,50.3a9.9,9.9,0,0,0,2-.38.31.31,0,0,0,.22-.37.3.3,0,0,0-.36-.21l-.65.16a5.39,5.39,0,0,0-1.2-.69.67.67,0,0,1-.33-.2.45.45,0,0,1,.07-.26,3.93,3.93,0,0,1,2.89,1.13A19.55,19.55,0,0,1,88,53.31a6.64,6.64,0,0,1-3,.72,4.93,4.93,0,0,1-3-.91l-.16-.18a9.12,9.12,0,0,0,2.28.31.29.29,0,0,0,.29-.3.3.3,0,0,0-.3-.29,8.22,8.22,0,0,1-2.06-.28,1.81,1.81,0,0,1-.73-.33c-.17-.13-.19-.45,0-.48a4.73,4.73,0,0,0,.82.34,6.86,6.86,0,0,0,1.92.31l.38,0a.3.3,0,0,0,0-.59,7.6,7.6,0,0,1-2.12-.31,3.1,3.1,0,0,1-1.06-.53.4.4,0,0,1,.12-.56,2.77,2.77,0,0,0,.31.22,4.3,4.3,0,0,0,2.36.67.29.29,0,0,0,.33-.26.3.3,0,0,0-.26-.33A3.69,3.69,0,0,1,82.12,50c-.21-.12-.42-.32-.37-.46Z" transform="translate(-5.46 0.27)"/><path d="M82.71,91.56a6.44,6.44,0,0,0-1.8.32,5.74,5.74,0,0,0-1.71.75,2.35,2.35,0,0,0-1.33,1.71H66.06a.3.3,0,0,0,0,.59H78a1.12,1.12,0,0,0,.91.5,47.24,47.24,0,0,0,5.57-.17.3.3,0,1,0,0-.6,46.07,46.07,0,0,1-5.5.17c-.24,0-.5-.15-.47-.38a1.45,1.45,0,0,1,.17-.52,2.72,2.72,0,0,1,.9-.8,6.78,6.78,0,0,1,3.46-1,.3.3,0,0,0,.33-.31c0-.4,0-.77,0-1.21,1.84,0,2.25,0,4,0,.06,1.26.13,2,.12,3a.93.93,0,0,1-.85.92l-1,0a.3.3,0,0,0-.28.32.3.3,0,0,0,.29.28l1-.06A1.51,1.51,0,0,0,88,93.64c0-1,0-1.76-.11-3a4.47,4.47,0,0,1,.72,0A.3.3,0,0,0,89,90.4c0-5.2-.55-6.3.18-13.88-.41-2.91-2.26-8.51-3-11.43a.19.19,0,0,1,.15-.24.19.19,0,0,1,.24.14c.76,2.93,2.62,8.59,3,11.52a.14.14,0,0,1,0,.11c.36,1.53.72,2.92,1.1,4,1.26,3.76,2.53,7.23,3.78,10.31a.3.3,0,0,0,.24.18c.38,0,.82.07,1.29.09,0,.29,0,.38,0,.89a6.83,6.83,0,0,0-1.81.32,5.85,5.85,0,0,0-1.71.75,2.37,2.37,0,0,0-1.33,1.75,1,1,0,0,0,1,1,47.11,47.11,0,0,0,5.57-.17.3.3,0,1,0,0-.6,48.28,48.28,0,0,1-5.5.18c-.24,0-.5-.15-.47-.39a1.52,1.52,0,0,1,.17-.52,2.72,2.72,0,0,1,.9-.8A5.51,5.51,0,0,1,94.34,93a5.11,5.11,0,0,1,1.92-.28.3.3,0,0,0,.33-.31c0-.37,0-.75,0-1.17,1.33,0,2.71,0,4,0,0,1.13.12,1.94.11,2.87a1,1,0,0,1-1,1l-.9,0a.31.31,0,0,0-.28.32.3.3,0,0,0,.3.28h.22l.69,0a1.64,1.64,0,0,0,1.52-1.62c0-1-.06-1.74-.11-2.92.26,0,.51,0,.74-.06a.31.31,0,0,0,.27-.32,101.52,101.52,0,0,0-2.07-12c-1.81-12.56-1.44-9.91-1.89-14.48l-18.47.08C79.84,66,81.17,86.71,81,88.89a3.11,3.11,0,0,0,.08,1.19c.17.43.28.51.73.53.18,0,.37,0,.88,0,0,.13,0,.1,0,.93Zm11.8-5.09a.2.2,0,1,1,0-.39,5,5,0,0,1,1.58.12.2.2,0,0,1-.1.39,4.72,4.72,0,0,0-1.45-.12ZM96.7,71a.19.19,0,0,1,.27.07.19.19,0,0,1-.07.26,2.67,2.67,0,0,0-.83.64.75.75,0,0,0-.08.83c.12.17.38.32.45.62a.91.91,0,0,1-.27.76c-.31.41-.31.5.07.89a1.21,1.21,0,0,1,.4.68c0,.39-.27.72-.22.95a.69.69,0,0,0,.2.3,2.47,2.47,0,0,1,.56,1.84,2,2,0,0,0,.42,1.51.2.2,0,0,1-.13.35.21.21,0,0,1-.13,0c-1-.84-.22-2.45-.89-3.27a1.34,1.34,0,0,1-.41-.6,1,1,0,0,1,.11-.63c.16-.38.16-.45-.19-.82a1.05,1.05,0,0,1-.4-.73c0-.49.56-.82.5-1.1a.65.65,0,0,0-.2-.26,1.44,1.44,0,0,1-.19-.22,1.13,1.13,0,0,1,.09-1.29A2.88,2.88,0,0,1,96.7,71ZM95.45,65.3a.22.22,0,0,1,0,.28,6.3,6.3,0,0,0-.82,1.69.2.2,0,0,1-.19.14.19.19,0,0,1-.19-.25,6.72,6.72,0,0,1,.87-1.81.2.2,0,0,1,.28,0Zm-2.11,1.26a5,5,0,0,1,.84-1.44.2.2,0,0,1,.3.26,4.74,4.74,0,0,0-.78,1.32.19.19,0,0,1-.25.11.19.19,0,0,1-.11-.25Zm-11.81,3a.21.21,0,0,1-.19.13.2.2,0,0,1-.19-.26A1.12,1.12,0,0,0,81,68.36h0a.44.44,0,0,1-.06-.62l0,0s-.15-.09-.22-.14a.64.64,0,0,1-.24-.66.62.62,0,0,1,.51-.48.2.2,0,0,1,0,.39.25.25,0,0,0-.18.18.24.24,0,0,0,.09.24c.11.08.41.19.39.48a.69.69,0,0,1-.14.3l.09.1a1.5,1.5,0,0,1,.25,1.44Zm2.13,1.18a.19.19,0,0,1,.22-.17.19.19,0,0,1,.17.22c-1.34,9.73,1.33,13.54,0,17.51a.21.21,0,0,1-.19.14.21.21,0,0,1-.19-.27c.73-2.09.27-4.44,0-6.67A41.23,41.23,0,0,1,83.66,70.73Z" transform="translate(-5.46 0.27)"/><path d="M88.82,27.07h0a.3.3,0,0,0-.3.3c0,.27-.08.43-.49.63a.3.3,0,0,0,.27.54,1.22,1.22,0,0,0,.81-1.17A.29.29,0,0,0,88.82,27.07Z" transform="translate(-5.46 0.27)"/><path d="M84.18,27.06a.62.62,0,0,0,.89.47.28.28,0,0,0,.1-.4A.3.3,0,0,0,84.8,27s0,0,0,0a.73.73,0,0,1,.13-.39c.34-.73,0-1.09-.28-1a.3.3,0,0,0-.18.38C84.51,26.18,84.1,26.58,84.18,27.06Z" transform="translate(-5.46 0.27)"/><path d="M85.2,28.41a.88.88,0,0,0,.5-.16.3.3,0,0,0-.36-.48.25.25,0,0,1-.2,0C84.73,27.7,84.52,28.41,85.2,28.41Z" transform="translate(-5.46 0.27)"/><path d="M89.48,20.39c-.59-.28-1.23,0-1.54-.38a1.34,1.34,0,0,0-1.39-.4c-1.12.14-1.63-.41-2.6.37-.27.21-.3.21-.54.14a1.16,1.16,0,0,0-.47-.07.73.73,0,0,0-.69.85c0,.13,0,.26-.1.28s-.57-.29-.59-.3a.3.3,0,0,0-.41.42c0,.05,0,.16.06.24a1.2,1.2,0,0,0,.61.91c.08.07.4.31.36.42s-.21.21-.62.28a.29.29,0,0,0-.24.36,1.49,1.49,0,0,0,1.35,1.09,1.16,1.16,0,0,0,.58-.14c-.32,1.31.29,4.57,2.15,5.26a23,23,0,0,1-.34,2.71l-.29-.09a.26.26,0,0,0-.24,0C83.38,33,82.15,33.64,81,34.3a.28.28,0,0,0-.11.4.29.29,0,0,0,.4.12c1.11-.63,2.3-1.24,3.42-1.87a8.46,8.46,0,0,0,7-.82,22,22,0,0,0,2,1.38,25.2,25.2,0,0,1,5.1,3.62,3.45,3.45,0,0,1,1.08,2.11,37.66,37.66,0,0,1,.35,4.15.3.3,0,0,0,.6,0,38.79,38.79,0,0,0-.36-4.22,4.12,4.12,0,0,0-1.26-2.47A26.27,26.27,0,0,0,94,33c-.8-.43-1.33-1-2.12-1.46a.32.32,0,0,0-.33,0,7.85,7.85,0,0,1-5.87,1.06A26.6,26.6,0,0,0,86,29.85,1.71,1.71,0,0,0,87.64,29a.3.3,0,0,0-.13-.4.3.3,0,0,0-.4.13,1.26,1.26,0,0,1-1.59.39,2.7,2.7,0,0,1-1.27-1.5,6,6,0,0,1-.47-2.77,2.56,2.56,0,0,1,.36-1,.56.56,0,0,1,.32-.09,8.15,8.15,0,0,0,.85.66,3.93,3.93,0,0,0,1.75.76,3.49,3.49,0,0,0,2.28-.24.91.91,0,0,1,.42-.14s0,0,0,.06a.74.74,0,0,1,0,.6,1.28,1.28,0,0,1-.11.2c-.23.16-.51.22-.63.55a.92.92,0,0,0,0,.65c.1.31.27.95.38,1.28a.31.31,0,0,0,0,.1,13.18,13.18,0,0,1,.21,1.37.29.29,0,0,0,.29.27.3.3,0,0,0,.3-.33,12.56,12.56,0,0,0-.31-1.83,2.61,2.61,0,0,1,.1-1.1,1.85,1.85,0,0,1,.28-.38A1.84,1.84,0,0,0,91,24.75a10.22,10.22,0,0,0-.66-3.12,1.81,1.81,0,0,0-.85-1.24Z" transform="translate(-5.46 0.27)"/><path d="M99.15,44.2a.3.3,0,1,0-.51-.31,5.54,5.54,0,0,0-.75,1.61,2,2,0,0,0,.4,1.84l.16.18-.11.08c-.8.62,0,1.18,0,1.48a.29.29,0,0,0-.1.39c.23.45,1-.09.55-.91-.07-.13-.18-.32-.16-.38s.43-.24.47-.6a.81.81,0,0,0-.32-.64,1.54,1.54,0,0,1-.26-1.32,5,5,0,0,1,.68-1.42Z" transform="translate(-5.46 0.27)"/><path d="M96.68,37.92c.58,0,.37-1.36-.58-1.43H96a.53.53,0,0,1,0-.14c0-.36-.24-.6-.52-.59a.3.3,0,0,0-.08.58c0,.08,0,.45.24.65a.79.79,0,0,0,.44.11.41.41,0,0,1,.34.47.29.29,0,0,0,.28.36Z" transform="translate(-5.46 0.27)"/><path d="M74.66,40.87a.3.3,0,0,0,.19-.53l-1.38-1.13a.3.3,0,0,0-.42,0,.28.28,0,0,0,0,.41c1.42,1.14,1.38,1.2,1.57,1.2Z" transform="translate(-5.46 0.27)"/><path d="M90.42,37.54a.3.3,0,0,0-.52-.31,5,5,0,0,0-.63,1.38,1.85,1.85,0,0,0,.32,1.61l.18.19c.32.3.27.3.12.67a8.29,8.29,0,0,0-.44,3.56.3.3,0,1,0,.59,0,7.88,7.88,0,0,1,.4-3.3,1.33,1.33,0,0,0,.16-.7c-.06-.39-.39-.6-.56-.79a1.24,1.24,0,0,1-.19-1.09,4.12,4.12,0,0,1,.57-1.2Z" transform="translate(-5.46 0.27)"/><path d="M82.19,41.44a.3.3,0,0,0,.14-.56.73.73,0,0,1-.35-.53.3.3,0,1,0-.59.07,1.19,1.19,0,0,0,.8,1Z" transform="translate(-5.46 0.27)"/><path d="M80.09,56.21a.3.3,0,0,0-.39.14,1.34,1.34,0,0,0,.3,1.48.32.32,0,0,0,.2.08.3.3,0,0,0,.2-.52.71.71,0,0,1-.16-.79.29.29,0,0,0-.15-.39Z" transform="translate(-5.46 0.27)"/><path d="M95.78,57.62a.18.18,0,0,0,.1,0,2.73,2.73,0,0,0,1.67-1.71.3.3,0,0,0-.19-.38.29.29,0,0,0-.37.2A2.1,2.1,0,0,1,95.69,57a.3.3,0,0,0,.09.58Z" transform="translate(-5.46 0.27)"/><path d="M95.71,55.31,95,56a.3.3,0,0,0,.21.51.28.28,0,0,0,.21-.08l.71-.68a.3.3,0,0,0-.42-.43Z" transform="translate(-5.46 0.27)"/><path d="M97.59,59h.29a1.46,1.46,0,0,0,1.39-1.39,26.76,26.76,0,0,0-.11-4.09.3.3,0,0,0-.33-.26.29.29,0,0,0-.26.33,25.56,25.56,0,0,1,.11,4,.86.86,0,0,1-.82.82c-6.38.22-12.83.56-19.2.78a.85.85,0,0,1-.88-.89c.1-2.08.24-4.21.33-6.33a.31.31,0,0,0-.28-.31.3.3,0,0,0-.32.28c-.08,2.13-.22,4.21-.33,6.33a1.45,1.45,0,0,0,1.5,1.51l.68,0c0,.54.11,1.2.17,1.93H75.21c-1.26-4-2.91-8.08-4.52-12a.27.27,0,0,0-.26-.18,173.71,173.71,0,0,0-17.92.23.3.3,0,0,0-.25.44c3.36,6.37,5.25,11.15,5.43,11.55H50.6a1.15,1.15,0,0,0,0,2.3l29.09-.06v0l18.46-.08h2.36L104,92.07a.31.31,0,0,0,.33.26.3.3,0,0,0,.26-.33l-3.43-28.12h.78c.62,0,1.49-.52,1.49-1.15s-.88-1.14-1.49-1.14h-4c-.1-.92-.21-1.8-.32-2.65ZM65.1,55.25a1.37,1.37,0,0,1-.75,1.59c-1,.27-2.18-1.19-1.83-2.32.47-1.58,2.32-.41,2.58.73Zm1,5.5a.19.19,0,0,1,.28,0,2.16,2.16,0,0,0,1.57.13,3,3,0,0,1,1.61,0,1.2,1.2,0,0,0,.91,0,1.63,1.63,0,0,1,1.19,0,1.83,1.83,0,0,0,.32.07c.27.06.62,0,.69-.19a.21.21,0,0,1,.25-.12.2.2,0,0,1,.12.26c-.15.41-.7.53-1.14.45a3.67,3.67,0,0,0-1-.19c-.24,0-.48.16-.78.18a3.77,3.77,0,0,1-1-.2c-.89-.17-2.12.5-3-.15a.2.2,0,0,1,0-.28Zm-7.58-3a.19.19,0,0,1,.27.07l.5.82a.21.21,0,0,1-.06.28.21.21,0,0,1-.28-.07L58.4,58A.19.19,0,0,1,58.47,57.74ZM55.6,52.33a.19.19,0,0,1,.09-.26.2.2,0,0,1,.27.09l2.32,4.62a.2.2,0,0,1-.09.27.19.19,0,0,1-.26-.09Z" transform="translate(-5.46 0.27)"/><path d="M28.62,5.56c0,37-.08,34.78.1,34.95a.37.37,0,0,0,.22.08l3.14-.24a.3.3,0,0,0,.27-.32.3.3,0,0,0-.32-.28L29.22,40V5.87L68.28,7.29v21a.3.3,0,1,0,.6,0V7a.3.3,0,0,0-.29-.29L28.93,5.26a.3.3,0,0,0-.31.3Z" transform="translate(-5.46 0.27)"/><path d="M51.07,38.74a.3.3,0,0,0,.3.27h0L66,38a.3.3,0,0,0,.28-.32.29.29,0,0,0-.32-.27l-14.59,1A.3.3,0,0,0,51.07,38.74Z" transform="translate(-5.46 0.27)"/><path d="M32.34,54.82a2.48,2.48,0,0,1-1.59-.15.31.31,0,0,0-.4.13.3.3,0,0,0,.13.4,2.82,2.82,0,0,0,1.64.25.86.86,0,0,0,1,.5,1.72,1.72,0,0,0,.93-.76.3.3,0,0,0-.07-.42.31.31,0,0,0-.42.07c-.18.25-.35.48-.57.53s-.3-.1-.28-.15-.1-.44-.33-.4Z" transform="translate(-5.46 0.27)"/><path d="M17,62.21a.29.29,0,0,0,.3.29l16.58-.38a.3.3,0,0,0,.29-.3.31.31,0,0,0-.3-.3l-16.57.39a.29.29,0,0,0-.3.3Z" transform="translate(-5.46 0.27)"/><path d="M13.17,62l.66,2.81a.3.3,0,0,0,.36.23.3.3,0,0,0,.22-.36l-.66-2.81a.31.31,0,0,0-.36-.23A.3.3,0,0,0,13.17,62Z" transform="translate(-5.46 0.27)"/><path d="M13.21,59.63a.31.31,0,0,0-.36-.23.3.3,0,0,0-.22.36l.21,1a.29.29,0,0,0,.35.23.28.28,0,0,0,.23-.35Z" transform="translate(-5.46 0.27)"/><path d="M19.51,49.82a.3.3,0,0,0-.48-.36,3.1,3.1,0,0,0-.67,1.33,1.27,1.27,0,0,0,.73,1.38c-.39.44-.2,1,.12,1.47.16.25.28.57.16.7a.3.3,0,1,0,.43.41c.19-.19.42-.64-.09-1.44-.16-.24-.31-.57-.19-.72l.05-.06c.1-.12.37-.42.13-.73a.56.56,0,0,0-.37-.18c-.28-.06-.42-.44-.38-.74a2.47,2.47,0,0,1,.56-1.06Z" transform="translate(-5.46 0.27)"/><path d="M14.05,34.62a3.2,3.2,0,0,0,1.57,2.63,11.3,11.3,0,0,0-.46,2.37.29.29,0,0,0,.26.33.29.29,0,0,0,.33-.26A12.28,12.28,0,0,1,17,35.36a.36.36,0,0,0,0-.11l0-.06a.29.29,0,0,0-.11-.38c-.36-.21-.8-.46-.82-.88a.39.39,0,0,1,.06-.24.61.61,0,0,1,.54-.16,2,2,0,0,1,.47.11c1.8.87,4.06.41,6.3-1.27a2,2,0,0,1,.21.26A3.17,3.17,0,0,1,24.07,34c0,1.86-1,4.49-2.74,5.09a2,2,0,0,1-1.42,0,.31.31,0,0,0-.23-.12,1.07,1.07,0,0,1-.43-.49.3.3,0,1,0-.55.23,1.68,1.68,0,0,0,.71.8c.09.44.48,1.62.62,2.3a.3.3,0,0,0,.59,0l.11,0a4.43,4.43,0,0,1-3.35,2.63,4.51,4.51,0,0,1-4.06-1.55.29.29,0,0,0-.41-.05.3.3,0,0,0-.05.42A5,5,0,0,0,17.47,45a5,5,0,0,0,3.84-3.06.25.25,0,0,0,0-.12c1.71,0,2.77-.7,4.09.34.61.47.68.6,5.69,6.69l.07.09a.27.27,0,0,0,.06.26c.55.61.32.65.16,1.07-.27.69.13,1.44-.1,1.92a.29.29,0,0,0,.27.42.32.32,0,0,0,.27-.16c.34-.71-.09-1.44.11-2,.13-.34.55-.76-.24-1.65,0,0,0,0,0,0,0-.81.29-1.69.35-2.6,0,0,0-.19,0-.21h.06a.27.27,0,0,0,.29.07c4.33,1.21,4.36,1.17,4.52,1.39a1,1,0,0,1,.09.47,20.37,20.37,0,0,1-.25,4.88,8,8,0,0,1-2.44,4.57.3.3,0,0,0,.19.52.31.31,0,0,0,.2-.07l.32-.3c2.53-2.57,2.71-6.1,2.58-9.63a1.42,1.42,0,0,0-.24-.83h0c.55-1.48.62-1.89,1.16-3.64a2,2,0,0,0,.13-1,.85.85,0,0,0-.75-.69,1.13,1.13,0,0,0-.41-.45,1.58,1.58,0,0,0-.86-.17,1.26,1.26,0,0,0-1.17-.14c.17-1,.33-2.06.42-3.07a1.7,1.7,0,0,0,0-.71c-.22-.72-1.1-.78-1.59-.09-.26.36-.21.37-1.42,5.24a1.81,1.81,0,0,0-.55.64,2.49,2.49,0,0,0-.11,1.5c0,.13-.07.53-.12.93a.55.55,0,0,0-.32.09.79.79,0,0,0-.34.69c0,.65-.18,1.24-.27,1.88-4.66-5.67-4.74-5.81-5.43-6.34A3.2,3.2,0,0,0,24.13,41c-1.26-.12-2.83.48-3.66.1h0c-.13-.47-.27-.92-.39-1.35,2.71.6,4.56-3,4.57-5.74a3.92,3.92,0,0,0-.79-4.55,4.55,4.55,0,0,0-4-1.1,2.2,2.2,0,0,0-1.57-2.88c-1.2-.18-3.2.69-3.59,1.82a2.27,2.27,0,0,0,.68,2.61,1.39,1.39,0,0,0,1,.2l-.16.16a6.13,6.13,0,0,0-2.11,4.37Zm23.23,7.11a.46.46,0,0,1,.12.12,1.26,1.26,0,0,0-.37.42c-.13.22-.27.47-.38.68s-.19.49-.2.51c0,.2-.31.49-.54.43a.85.85,0,0,1,0-.65c.26-.49.83-1.59.84-1.59a1,1,0,0,1,.51.08Zm-1.08-.29-.27.53a1.11,1.11,0,0,0-.57-.29H35.3l.08,0A1.3,1.3,0,0,1,36.2,41.44Zm-1.37-4a.56.56,0,0,1,.38-.24.22.22,0,0,1,.16.16,26.65,26.65,0,0,1-.49,4,.32.32,0,0,0,.14.31,6.47,6.47,0,0,0-1.4.26c1.09-4.37,1-4.31,1.21-4.54Zm-2,7a2.4,2.4,0,0,1,0-1.17c.34-.61.85-.75,1.6-.88a2.25,2.25,0,0,1,.76-.06c.15,0,.31.11.33.23s-.22.48-.56.66a4.66,4.66,0,0,0-1.08.47c-.48.34,0,1.36.44,1.5a.29.29,0,0,0,.37-.2.28.28,0,0,0-.2-.36.8.8,0,0,1-.23-.49,8.36,8.36,0,0,1,.93-.38.76.76,0,0,0,.45.75.85.85,0,0,0,.76-.1.66.66,0,0,0,1.2-.24.29.29,0,0,0-.58-.1.19.19,0,0,1-.11,0s0-.13,0-.28a4.48,4.48,0,0,1,.56-1.2.59.59,0,0,1,.34-.3.27.27,0,0,1,.28.22,1.71,1.71,0,0,1-.12.71c-.53,1.69-.6,2.12-1.1,3.47-.18-.08.08,0-4.21-1.2a6.51,6.51,0,0,0,.13-1.09Z" transform="translate(-5.46 0.27)"/><path d="M17.85,38a.26.26,0,0,0,.19.07.3.3,0,0,0,.19-.53,1.19,1.19,0,0,1-.56-.85.31.31,0,0,0-.38-.2.3.3,0,0,0-.19.37A1.64,1.64,0,0,0,17.85,38Z" transform="translate(-5.46 0.27)"/><path d="M22.44,36.59a.31.31,0,0,0-.42.09.3.3,0,0,0,.09.41.72.72,0,0,0,1-.46c.16-.56-.33-1.08-.2-1.36a.29.29,0,0,0-.53-.25c-.29.59.25,1.13.16,1.46a.17.17,0,0,1-.14.11Z" transform="translate(-5.46 0.27)"/><path d="M26.51,54.7a.29.29,0,0,0-.09.41A12.61,12.61,0,0,0,29.17,58a12.44,12.44,0,0,1,.59,3,.3.3,0,1,0,.59,0,11.5,11.5,0,0,0-.42-2.46,4.22,4.22,0,0,0,1.43.54,4.06,4.06,0,0,0,2.48-.55.31.31,0,0,0,.11-.41.29.29,0,0,0-.4-.11,3.31,3.31,0,0,1-2.1.48c-1.48-.19-3.67-2.32-4.53-3.63a.29.29,0,0,0-.41-.09Z" transform="translate(-5.46 0.27)"/><path d="M6.9,48a.29.29,0,0,0,.22-.35,3.35,3.35,0,0,1,.63-2.12c1.76-3.11,6.88-2.14,7.8-4.71a.3.3,0,0,0-.19-.38.29.29,0,0,0-.38.18c-.74,2.07-5.9,1.33-7.75,4.62a3.72,3.72,0,0,0-.69,2.54A.3.3,0,0,0,6.9,48Z" transform="translate(-5.46 0.27)"/><path d="M21.62,37.45a.31.31,0,0,0-.42,0,.3.3,0,0,0,0,.42,1,1,0,0,0,.83.22.32.32,0,0,0,.24-.35.31.31,0,0,0-.35-.24A.41.41,0,0,1,21.62,37.45Z" transform="translate(-5.46 0.27)"/><path d="M28.76,49.49a.3.3,0,0,0,.29.24.29.29,0,0,0,.29-.36,2.78,2.78,0,0,0-1.16-1.74.3.3,0,0,0-.34.5,2.18,2.18,0,0,1,.92,1.36Z" transform="translate(-5.46 0.27)"/><path d="M27.58,49.22a.31.31,0,0,0-.18.38l.18.54a.3.3,0,0,0,.57-.19L28,49.41A.31.31,0,0,0,27.58,49.22Z" transform="translate(-5.46 0.27)"/><path d="M16.46,78.59a1.08,1.08,0,0,0,1.34,1.47,1.06,1.06,0,0,0,.6-.56l1.8-4a.75.75,0,0,0,.73-.51.94.94,0,0,0,1.19-.93c1,.25,1.73-.85-.05-2.64,0-.09.07-.17.11-.25a1.14,1.14,0,0,0,.24-.52c.12-.27-.46,1,1.22-2.69L22,67.09a9.61,9.61,0,0,0-.8,1.61,3.13,3.13,0,0,0-1.39-.35,3.46,3.46,0,0,1-2.91-1.17l.66-.13a.3.3,0,0,0,.18-.47,15.14,15.14,0,0,1-2.67-7.25c-.2-1.68-.89-2.81-1.22-4.4,0,0,0,0,0,0a1.64,1.64,0,0,1,.12-.28.3.3,0,0,0-.06-.59c-.36,0-.49.35-.57.54s-.08.18-.32.26a.82.82,0,0,0-.53.59,1.88,1.88,0,0,0,0,.62.3.3,0,0,0,.3.27A.29.29,0,0,0,13,56a1.48,1.48,0,0,1,0-.42.24.24,0,0,1,.13-.17l.15,0a32.45,32.45,0,0,1,1.15,4A16,16,0,0,0,17,66.56,5.45,5.45,0,0,0,13.9,68a12.75,12.75,0,0,1-2.62,1.61,40.21,40.21,0,0,1-2.86-6.87.3.3,0,0,0-.37-.2.29.29,0,0,0-.2.37,40.84,40.84,0,0,0,3,7.22.3.3,0,0,0,.38.14c.25-.11.49-.23.72-.35a4.84,4.84,0,0,0,.75,1.15,23,23,0,0,0,5.14,4.48l0,0-1.44,3Zm-3.27-7.86a4.5,4.5,0,0,1-.69-1.06c1.75-1,2.51-2,3.77-2.35C17,68.68,18.63,68.9,19.76,69a2.43,2.43,0,0,1,1.16.29l-.47,1-.73-.42a.3.3,0,0,0-.29.53,7.7,7.7,0,0,1,2.77,2.18,1.71,1.71,0,0,1,.36.92s0,.06,0,.06c-.31.2-1.24-.55-2.26-1.13a.3.3,0,1,0-.3.51c.5.28,1,.64,1.46.9l0,.09c.27.47-.23.8-.74.39l-.07,0a1.76,1.76,0,0,0-.31-.25c-.18-.11-.84-.77-1.16-1a.3.3,0,0,0-.41.11.31.31,0,0,0,.12.41c.24.13.91.79,1.13.93s.32.24.34.41a.73.73,0,0,1-.76-.1c-.23-.19-1.48-1.11-1.64-1.26a.3.3,0,0,0-.39.46l1.57,1.19a.31.31,0,0,1-.16.09.37.37,0,0,1-.18,0,1.39,1.39,0,0,1-.58-.22,22.19,22.19,0,0,1-5-4.36Z" transform="translate(-5.46 0.27)"/><path d="M23.39,65.65c-.36.4-.79.83-1.12,1.15l1.43.77c0-.49.13-1.14.2-1.67a.3.3,0,0,0-.51-.25Z" transform="translate(-5.46 0.27)"/><path d="M55.9,16.89A4.33,4.33,0,0,0,51,18.66l.52-3.3a.63.63,0,0,0,.37-.68.66.66,0,1,0-1,.66l-1.4,8.85a.66.66,0,0,0,.29,1.29.66.66,0,0,0,.29-1.19l.34-2.1a4.34,4.34,0,0,0,8,1,4.35,4.35,0,0,1-2.49-6.32Z" transform="translate(-5.46 0.27)"/><path d="M65.51,22.69a.66.66,0,0,0,.66-.66.67.67,0,0,0-.59-.65l-3.32-8.49a.66.66,0,1,0-1.17-.32.67.67,0,0,0,.63.57l1.16,3a4.35,4.35,0,0,0-7,.77,4.36,4.36,0,0,1,2.49,6.32A4.35,4.35,0,0,0,64,19l1,2.56a.67.67,0,0,0-.18.45.65.65,0,0,0,.66.66Z" transform="translate(-5.46 0.27)"/><path d="M29.56,10.83a.3.3,0,0,0,.3.29H67.31a.3.3,0,0,0,0-.59H29.86A.29.29,0,0,0,29.56,10.83Z" transform="translate(-5.46 0.27)"/><path d="M33.16,8.4a.86.86,0,0,0-1.71,0,.83.83,0,0,0,.83.85A.85.85,0,0,0,33.16,8.4Z" transform="translate(-5.46 0.27)"/><path d="M36.1,8.49a.83.83,0,0,0-.83-.85.83.83,0,1,0,0,1.65A.82.82,0,0,0,36.1,8.49Z" transform="translate(-5.46 0.27)"/><path d="M38.52,9.39h0a.83.83,0,1,0-.87-.86.84.84,0,0,0,.87.86Z" transform="translate(-5.46 0.27)"/><path d="M32.83,31.13c.64,0,8.22-.94,10.94-1.19a.29.29,0,0,0,.27-.29l.25-14.41a.31.31,0,0,0-.29-.3c-3.51-.14-7.67-.68-11.34-1a.3.3,0,0,0-.32.29c-.09,5.42.29,11.23.19,16.61a.29.29,0,0,0,.3.3Zm.09-15.77a88.11,88.11,0,0,1,5.73,7.1L33.13,30c0-4.86-.23-9.69-.21-14.63Zm.6,15.11L39,23q2.27,3.16,4.16,6.44c-2.7.26-6.47.76-9.65,1.07Zm9.94-1.75q-1.87-3.18-4.08-6.26l4.29-5.86Zm.23-13.19v.17c-.21,0,.07-.17-4.67,6.26a90.08,90.08,0,0,0-5.88-7.25.32.32,0,0,0-.21-.1v0c3.49.32,7.38.81,10.76,1Z" transform="translate(-5.46 0.27)"/><path d="M50.84,40.06c-.15-.91-.32-2-.5-3s-.35-2.1-.5-3a.32.32,0,0,0-.19-.23.3.3,0,0,0-.3.06l-2.24,1.95-2.24,2a.31.31,0,0,0-.1.15,20.53,20.53,0,0,0-.38,3.82c0,.19,0,.38,0,.57a2.29,2.29,0,0,1-.28-.09.31.31,0,0,0-.36.17c-.27.61-.53,1.24-.77,1.84s-.49,1.23-.76,1.83a.3.3,0,0,0,0,.23.31.31,0,0,0,.16.16,42.69,42.69,0,0,0,4.37,1.61h.08a.32.32,0,0,0,.28-.19c.22-.58.44-1.29.67-2s.41-1.31.61-1.85a.26.26,0,0,0,.07-.14.26.26,0,0,0-.06-.24.26.26,0,0,0-.15-.12l-.08,0c.38-.48.76-.95,1.13-1.39s1-1.21,1.5-1.87a.32.32,0,0,0,.06-.23Zm-2,1.72c-.41.5-.84,1-1.27,1.58l-1.38-.45L45,42.53c0-.24,0-.49,0-.75a20.62,20.62,0,0,1,.35-3.6l2.17-1.9,1.58-1.38L48,37.55a.31.31,0,0,0,.16.39l.12,0a.3.3,0,0,0,.27-.19l.92-2.26c.09.53.18,1.09.27,1.64.17,1,.33,2,.48,2.88-.47.62-.95,1.19-1.41,1.75Z" transform="translate(-5.46 0.27)"/><path d="M48.26,38.12a1.06,1.06,0,0,0-1.41.3h0s0,0,0,0a1.06,1.06,0,0,0,.34,1.4,1,1,0,0,0,.52.14,1,1,0,0,0,.88-.46A1.06,1.06,0,0,0,48.26,38.12Z" transform="translate(-5.46 0.27)"/><path d="M62.14,31.29l-.07-1a.29.29,0,0,0-.31-.28l-9.35.59a.36.36,0,0,0-.21.11.31.31,0,0,0-.07.21l.07,1a.29.29,0,0,0,.31.28l9.35-.59A.31.31,0,0,0,62.14,31.29Z" transform="translate(-5.46 0.27)"/><path d="M61.46,33.68a.29.29,0,0,0-.34-.25,65.36,65.36,0,0,1-7.52.63.3.3,0,0,0,0,.6h0A64.39,64.39,0,0,0,61.21,34,.31.31,0,0,0,61.46,33.68Z" transform="translate(-5.46 0.27)"/><path d="M57.13,35.55a.29.29,0,0,0-.28.31.3.3,0,0,0,.3.28h0L58.7,36a.3.3,0,0,0,.28-.31.3.3,0,0,0-.32-.28Z" transform="translate(-5.46 0.27)"/><path d="M37,39.66l6.54-.22a.3.3,0,0,0,.29-.31.31.31,0,0,0-.31-.29L37,39.06a.3.3,0,0,0-.29.31A.31.31,0,0,0,37,39.66Z" transform="translate(-5.46 0.27)"/><path d="M78.56,9.81a.3.3,0,0,0,.4-.15,5.69,5.69,0,0,1,8.11-2.27,4.85,4.85,0,0,1,2.16,3.81.3.3,0,1,0,.59,0,5.44,5.44,0,0,0-2.43-4.27,6.28,6.28,0,0,0-9,2.53.3.3,0,0,0,.15.39Z" transform="translate(-5.46 0.27)"/><path d="M85.94,17.3c.72.58,1.48,1.15,2.25,1.69a.3.3,0,0,0,.46-.31,17.26,17.26,0,0,1-.34-3,6.3,6.3,0,0,0,1.49-3.3.3.3,0,0,0-.26-.33.29.29,0,0,0-.33.26,5.6,5.6,0,0,1-1.43,3.07.33.33,0,0,0-.07.21,18,18,0,0,0,.23,2.53c-1.8-1.3-1.72-1.41-2-1.41l-.11,0a5.48,5.48,0,0,1-5.81-1.13,5.43,5.43,0,0,1-1.44-4.85.29.29,0,0,0-.24-.34.29.29,0,0,0-.35.23A6.11,6.11,0,0,0,79.65,16a6.1,6.1,0,0,0,6.29,1.31Z" transform="translate(-5.46 0.27)"/><path d="M81.78,9.23a.3.3,0,0,0-.35.38,32.73,32.73,0,0,1,1.38,5.76.3.3,0,0,0,.55.12c.09-.12,0-.17.6-1.38a8.61,8.61,0,0,0,.64-1.6,27.14,27.14,0,0,0,3.23-1,.3.3,0,0,0,0-.57c-2-.48-4-1.23-6-1.71Z" transform="translate(-5.46 0.27)"/><path d="M94.7,20.38a.29.29,0,0,0,.22.35.3.3,0,0,0,.36-.22,14.61,14.61,0,0,0-4-13.64.3.3,0,0,0-.42,0,.3.3,0,0,0,0,.43A14,14,0,0,1,94.7,20.37Z" transform="translate(-5.46 0.27)"/><path d="M97.59,16.41a.29.29,0,0,0,.24.34.3.3,0,0,0,.35-.24,8.34,8.34,0,0,0-1.3-6,.28.28,0,0,0-.41-.08.29.29,0,0,0-.08.41,7.7,7.7,0,0,1,1.2,5.58Z" transform="translate(-5.46 0.27)"/><path d="M17.2,87.55l.13,0a.3.3,0,0,0,.13-.56A22.17,22.17,0,0,1,6.14,73.45a.28.28,0,0,0-.36-.21.31.31,0,0,0-.21.37A22.82,22.82,0,0,0,17.2,87.55Z" transform="translate(-5.46 0.27)"/><path d="M10.27,85.54a.28.28,0,0,0,.15,0,.3.3,0,0,0,.15-.55A11.62,11.62,0,0,1,6,80.21a.29.29,0,0,0-.4-.13.3.3,0,0,0-.13.4,12.27,12.27,0,0,0,4.78,5.06Z" transform="translate(-5.46 0.27)"/><path d="M23.78,8.11a.3.3,0,0,0,.56.2A12.2,12.2,0,0,1,31.78,1,.31.31,0,0,0,32,.58a.3.3,0,0,0-.37-.19A12.79,12.79,0,0,0,23.78,8.11Z" transform="translate(-5.46 0.27)"/><path d="M23.34,3.92a.32.32,0,0,0,.28-.19,5.63,5.63,0,0,1,4-3.42A.28.28,0,0,0,27.82,0a.3.3,0,0,0-.35-.23,6.27,6.27,0,0,0-4.41,3.79.3.3,0,0,0,.28.4Z" transform="translate(-5.46 0.27)"/></svg>