<svg id="Layer_1" data-name="Layer 1" xmlns="http://www.w3.org/2000/svg" viewBox="0 0 54.64 61.5"><defs><style>.cls-1{fill:#010101;}</style></defs><path class="cls-1" d="M30,65.75a.76.76,0,0,1-.75-.75V59.34a.75.75,0,0,1,1.5,0V65A.77.77,0,0,1,30,65.75Zm3.34-3.12a.74.74,0,0,1-.75-.73V59.34a.75.75,0,0,1,1.5,0v2.54a.75.75,0,0,1-.71.75Zm-6.67,0a.74.74,0,0,1-.75-.73V59.34a.75.75,0,0,1,1.5,0v2.54a.75.75,0,0,1-.71.75ZM34.28,57H25.79a1.38,1.38,0,0,1-1.38-1.38h0V54a1.85,1.85,0,0,1-1.9-1.62l-.11-.84c-3.33.93-6.88,4.68-6.92,4.72a.76.76,0,0,1-1.07,0,.72.72,0,0,1-.23-.53,15.33,15.33,0,0,1,1.91-7.81H5.77a3.1,3.1,0,0,1-3.09-3.1V7.34A3.09,3.09,0,0,1,5.77,4.25H54.23a3.09,3.09,0,0,1,3.09,3.09h0V44.82a3.1,3.1,0,0,1-3.09,3.1H43.92a15.42,15.42,0,0,1,1.9,7.81.77.77,0,0,1-.77.75.8.8,0,0,1-.53-.23s-3.53-3.72-6.84-4.7l-.11.82A1.85,1.85,0,0,1,35.67,54v1.6A1.38,1.38,0,0,1,34.31,57Zm-8.37-1.5h8.26V54H25.91Zm12-5.43a17.5,17.5,0,0,1,6.36,3.84A12.48,12.48,0,0,0,42,47.64h0a11.05,11.05,0,0,0-3.35-3c-.23,1.41-.56,4-.74,5.41ZM18.08,47.62a12.48,12.48,0,0,0-2.31,6.27A17,17,0,0,1,22.21,50l-.66-5.1v-.32A11.24,11.24,0,0,0,18.08,47.62Zm5.82,3.75c.09.39,0,1.13.46,1.12H35.73c.47,0,.36-.72.46-1.12Zm-.2-1.5H36.38c.2-1.6.54-4.18.74-5.77A30.18,30.18,0,0,0,34.3,27.82a8.36,8.36,0,0,1-8.53,0A30,30,0,0,0,23,44.73Zm19.2-3.45H54.23a1.6,1.6,0,0,0,1.59-1.6V11.6H29.19l-3,3a.75.75,0,0,1-.53.22H4.18v30a1.6,1.6,0,0,0,1.59,1.6H17.11A12.79,12.79,0,0,1,21.35,43a31.68,31.68,0,0,1,5.59-20.15,31,31,0,0,1,2.54-3.18.76.76,0,0,1,.95-.14A31.47,31.47,0,0,1,38.72,43,12.7,12.7,0,0,1,42.9,46.42ZM26.46,26.49a6.86,6.86,0,0,0,7.15,0A29,29,0,0,0,30,21.31,28.58,28.58,0,0,0,26.46,26.49ZM4.18,13.32H25.34l3-3a.79.79,0,0,1,.54-.22H55.82V7.35a1.59,1.59,0,0,0-1.58-1.6H5.77a1.59,1.59,0,0,0-1.59,1.6ZM30,45.39a.74.74,0,0,1-.75-.73v-5a4.09,4.09,0,1,1,1.5,0v4.94A.76.76,0,0,1,30,45.39Zm0-12.31a2.59,2.59,0,1,0,.05,5.18,2.51,2.51,0,0,0,.72-.11A2.59,2.59,0,0,0,30,33.08ZM20.24,11.71a2.18,2.18,0,0,1,0-4.35,2.18,2.18,0,0,1,0,4.35Zm0-2.85a.68.68,0,1,0,.59.59A.68.68,0,0,0,20.24,8.86Zm-5.7,2.85a2.18,2.18,0,0,1,0-4.35,2.18,2.18,0,0,1,0,4.35Zm0-2.85a.68.68,0,0,0,0,1.35.68.68,0,0,0,0-1.35Zm-5.7,2.85a2.18,2.18,0,0,1,0-4.35,2.18,2.18,0,1,1,0,4.35Zm0-2.85a.68.68,0,1,0,.69.67.69.69,0,0,0-.69-.69Z" transform="translate(-2.68 -4.25)"/></svg>