<svg id="Layer_1" data-name="Layer 1" xmlns="http://www.w3.org/2000/svg" viewBox="0 0 52.81 52.97"><defs><style>.cls-1{fill:#010101;fill-rule:evenodd;}</style></defs><path class="cls-1" d="M14.26,26.42a.58.58,0,0,0,0-1.15H12.79a1.63,1.63,0,0,0-1.63,1.64v4.51a.58.58,0,0,0,1.15,0V26.91a.48.48,0,0,1,.48-.49ZM46.45,25.1a4,4,0,0,0,3.77,6.78.57.57,0,1,0-.28-1.11,2.86,2.86,0,0,1-2.69-4.84.58.58,0,0,0-.8-.83ZM27.26,16.39a4,4,0,0,0,4.25,2,4.29,4.29,0,0,1-4.1,1.14.57.57,0,0,0-.7.42.58.58,0,0,0,.41.7,5.52,5.52,0,0,0,1.34.16,5.46,5.46,0,0,0,5.39-6.33.58.58,0,0,0-.66-.48.58.58,0,0,0-.48.66,4,4,0,0,1,.06.69,4.46,4.46,0,0,1-.21,1.33,2.82,2.82,0,0,1-1.05.53,2.85,2.85,0,0,1-3.24-1.37.58.58,0,0,0-1,.56ZM32.8,32a.57.57,0,0,0-.71.4.58.58,0,0,0,.41.71,1.93,1.93,0,0,1,1.36,2.37.58.58,0,0,0,1.12.3A3.09,3.09,0,0,0,32.8,32Zm.71-2.66a5.85,5.85,0,0,1,4.13,7.15.58.58,0,1,1-1.12-.3,4.7,4.7,0,0,0-3.31-5.74.57.57,0,0,1-.41-.7.58.58,0,0,1,.71-.41Zm8.62,7.23V53.42H18.48V46.2a4.24,4.24,0,0,0,1.7.1l2.9,5a2.9,2.9,0,0,0,5-2.9l-2.73-4.72a15.42,15.42,0,0,1,6.37-1.39,2.21,2.21,0,0,0,.8.17,1.41,1.41,0,0,0,.75-.2c1.61-.93.7-4.47-1-7.48s-4.35-5.58-6-4.64a1.77,1.77,0,0,0-.8,1.33,15.28,15.28,0,0,1-5.17,5.34l-1.84,1.06V35.45A9,9,0,0,0,18.7,22a4.15,4.15,0,0,1,2.81-2.64,9,9,0,0,0,17.59,0,4.14,4.14,0,0,1,3,3.31,8.4,8.4,0,0,0-1.51,9.86.38.38,0,0,1,0,.31l-.5,1.77a1.58,1.58,0,0,0,1.91,2Zm0,19.68V54.57H18.48v1.67a4.11,4.11,0,0,0,4.1,4.1H38a4.11,4.11,0,0,0,4.1-4.1ZM32.72,41.3c-.49.29-2.5-.94-4.39-4.22s-2-5.62-1.46-5.91,2.5.94,4.39,4.22S33.22,41,32.72,41.3ZM56.4,28.63a8.41,8.41,0,0,1-12.18,7.51.37.37,0,0,0-.29,0l-.65.17v20A5.26,5.26,0,0,1,38,61.49H22.58a5.26,5.26,0,0,1-5.25-5.25V45.7a4.22,4.22,0,0,1,0-7.12V36.29a9,9,0,1,1,.43-15,5.31,5.31,0,0,1,3.58-3,9,9,0,1,1,17.92,0,5.3,5.3,0,0,1,3.8,3.62A8.4,8.4,0,0,1,56.4,28.63ZM33.05,57.27a.58.58,0,0,1-.58.58H28.13a.58.58,0,0,1,0-1.15h4.34A.57.57,0,0,1,33.05,57.27Z" transform="translate(-3.6 -8.51)"/></svg>