<svg id="Layer_1" data-name="Layer 1" xmlns="http://www.w3.org/2000/svg" viewBox="0 0 110 90.74"><path d="M33.83,90.67a.32.32,0,0,0-.32.32.32.32,0,0,0,.31.32H35a.32.32,0,0,0,.32-.32.32.32,0,0,0-.31-.32C34.3,90.68,34.52,90.68,33.83,90.67Z" transform="translate(0 -2.5)"/><path d="M8,89.56a.32.32,0,0,0,.32-.29c0-.59.08-1.07.13-1.47a.33.33,0,0,0-.28-.36.32.32,0,0,0-.35.29c-.06.41-.1.91-.14,1.5a.32.32,0,0,0,.32.33Z" transform="translate(0 -2.5)"/><path d="M10.38,89.72a.32.32,0,0,0,.32-.32.32.32,0,0,0-.32-.32h-1a.32.32,0,0,0-.32.32.32.32,0,0,0,.32.32S10.41,89.72,10.38,89.72Z" transform="translate(0 -2.5)"/><path d="M29,25.35a.31.31,0,0,0-.18-.42c-.42-.18-.46-.32-.48-.53a.33.33,0,0,0-.34-.29.32.32,0,0,0-.3.34,1.17,1.17,0,0,0,.88,1.07A.32.32,0,0,0,29,25.35Z" transform="translate(0 -2.5)"/><path d="M31.49,24a.33.33,0,0,0,.15.43.64.64,0,0,0,.87-.53,1.13,1.13,0,0,0-.22-.71s-.12-.22-.1-.29a.31.31,0,0,0-.21-.39.31.31,0,0,0-.4.21,1,1,0,0,0,.15.78v0c0,.05.16.27.12.32A.31.31,0,0,0,31.49,24Z" transform="translate(0 -2.5)"/><path d="M31,24.64a.32.32,0,0,0,.1.44.84.84,0,0,0,.72.09.32.32,0,1,0-.21-.6.21.21,0,0,1-.17,0A.32.32,0,0,0,31,24.64Z" transform="translate(0 -2.5)"/><path d="M9.21,43c-.81,2.06-.63,1.65-.68,1.89a27.72,27.72,0,0,0,1.16,9.5.32.32,0,0,0,.37.21,20.23,20.23,0,0,0,4.83-1.84.47.47,0,0,0,.21-.41,28.85,28.85,0,0,1-.84-6.16c1.09-1.62,2.54-3.42,3.58-5.1a.32.32,0,1,0-.55-.34c-1,1.65-2.49,3.48-3.58,5.11-.35.52.3,4.63.71,6.42a20.43,20.43,0,0,1-4.22,1.63,27.05,27.05,0,0,1-1-9c.07-.29.94-2.39,1.64-4.27C12.34,36.56,16,31.2,16.63,31a45,45,0,0,1,8.17-1.88,4.3,4.3,0,0,0,2.44,1.25.32.32,0,0,0,.37-.25.32.32,0,0,0-.25-.38,3.62,3.62,0,0,1-2.17-1.15.32.32,0,0,0-.29-.12,45,45,0,0,0-8.46,1.92c-1,.32-4.77,6.19-6.23,10.06-.34.91-.7,1.84-1,2.59Z" transform="translate(0 -2.5)"/><path d="M35.82,40.63a.33.33,0,0,0,.27-.36A4.37,4.37,0,0,1,36.22,38a.32.32,0,0,0-.17-.42.32.32,0,0,0-.42.17,5,5,0,0,0-.17,2.62.32.32,0,0,0,.36.27Z" transform="translate(0 -2.5)"/><path d="M30,52.44a15,15,0,0,0-.13,2.13c.18,2.17,1.51,3.27,2.77,3.27a2.06,2.06,0,0,0,1.74-.93c.54-.9.44-2.92.31-4a.32.32,0,0,0-.34-.29,9.71,9.71,0,0,1-3.93-.5.33.33,0,0,0-.42.28Z" transform="translate(0 -2.5)"/><path d="M28.4,17.51c-.25.38-.88.13-1.44.43a1.79,1.79,0,0,0-.76,1.21,9.19,9.19,0,0,0-.44,3c.07,1.2.67,1.3.91,1.71a2,2,0,0,1,.19.8,12.32,12.32,0,0,0-.22,1.91.32.32,0,0,0,.3.34.32.32,0,0,0,.34-.3,11.57,11.57,0,0,1,.12-1.34.29.29,0,0,0,.08-.14c.09-.33.16-.82.24-1.12a.83.83,0,0,0,0-.64c-.14-.32-.43-.37-.64-.49a.61.61,0,0,1-.12-.16.63.63,0,0,1,0-.55,4.48,4.48,0,0,0,2.63.19,3.82,3.82,0,0,0,1.63-.82,6,6,0,0,0,.79-.67.4.4,0,0,1,.26.06,2.32,2.32,0,0,1,.4.88c.19,1.34-.21,3.42-1.38,4a1.21,1.21,0,0,1-1.52-.25.3.3,0,0,0-.43-.1.31.31,0,0,0-.11.44,1.65,1.65,0,0,0,1.63.69c.05.58.23,2,.26,2.5a5.32,5.32,0,0,1-2.29,1.19.31.31,0,0,0-.25.28c-.59,6.49-.9,13.5-.91,20a3.9,3.9,0,0,1-2.68-.2,175.69,175.69,0,0,0,2.08-18.69.32.32,0,0,0-.3-.34.32.32,0,0,0-.34.3,177.18,177.18,0,0,1-3.66,27v0a20.54,20.54,0,0,1-3.24.09c-.49-1-.91-1.84-1.4-3.09a.3.3,0,0,0-.31-.2,3,3,0,0,0-2-1.83c1.47-5.65,2.69-11.4,3.62-17.11a.32.32,0,0,0-.64-.1c-.92,5.72-2.14,11.48-3.63,17.14H15a2.75,2.75,0,0,0-.21-.39.33.33,0,0,0-.45,0,.32.32,0,0,0,0,.46c.09.11.14.68.91.62a2.46,2.46,0,0,1,1.94,1.29,10.48,10.48,0,0,0-1.15.12.76.76,0,0,1-.11-.14.33.33,0,0,0-.46,0,.32.32,0,0,0,0,.45c.7.79,1.51,1.83,2.11,2.58.08.11.13.31,0,.35s-.73-.77-1.29-1.42a.32.32,0,1,0-.48.42c.34.4.58.74.84,1v.08c.07.36-.25.48-.48.11L16.08,59a3.73,3.73,0,0,0-.25-.39,1.58,1.58,0,0,0-.23-.3.32.32,0,0,0-.47.43,4.73,4.73,0,0,1,.28.39.71.71,0,0,1,.14.32.5.5,0,0,1-.38-.23c-.09-.16-.17-.31-.27-.47a.32.32,0,1,0-.55.32l.19.35H14.4a1.15,1.15,0,0,1-.35-.28,25.8,25.8,0,0,1-2.67-4.41.31.31,0,0,0-.42-.15.32.32,0,0,0-.16.42c.18.38.37.77.59,1.16l-1.09.15a.32.32,0,0,0-.26.39A17.21,17.21,0,0,0,12.41,62a.3.3,0,0,0,.31.15L14,62c-2.27,9.18-3.51,15.76-6.23,25.3a17.19,17.19,0,0,0,4.89.48.27.27,0,0,0,0,.16c0,.47,0,.89,0,1.39a.33.33,0,0,0,.33.33,4.67,4.67,0,0,1,2.37.4,3.22,3.22,0,0,1,1.14,2.36L8.2,92.26c0-.53.05-1.4.08-2A.32.32,0,0,0,8,90a.34.34,0,0,0-.34.3c0,.7-.07,1.77-.09,2.29a.31.31,0,0,0,.31.33l8.88.21a.32.32,0,0,0,.32-.27,3.74,3.74,0,0,0-1.43-3.3,4.79,4.79,0,0,0-2.37-.48c0-.37,0-.74,0-1.09a.28.28,0,0,0-.06-.18,18.41,18.41,0,0,0,2.35-.35,240.23,240.23,0,0,0,9.71-27.75A143.48,143.48,0,0,0,27.4,88L28,88c.05,2.12,0,2.68,0,4.34H22.38a.33.33,0,0,0-.32.33.32.32,0,0,0,.32.32l26.23,0a.32.32,0,0,0,.32-.32.32.32,0,0,0-.32-.33H37.76a6.05,6.05,0,0,0-.42-1.9.32.32,0,0,0-.42-.18.33.33,0,0,0-.18.42,5.14,5.14,0,0,1,.37,1.49c-2.67.18-5.8,0-8.5.15,0-1.84.05-2.1,0-4.36l3.29-.16a4.43,4.43,0,0,0,0,.55,3.92,3.92,0,0,0,.25.85.33.33,0,0,0,.34.24,5.6,5.6,0,0,1,3.65.44.31.31,0,0,0,.18,0,.32.32,0,0,0,.17-.59,5.79,5.79,0,0,0-3.81-.57,1.56,1.56,0,0,1-.14-.89.2.2,0,0,0,0-.11l1.74-.1A148.11,148.11,0,0,0,35,60.78c.7-.05,1.41-.13,2.12-.24a.33.33,0,0,0,.27-.34C37.07,54.82,37,49.36,37.08,44c1.37,1.48,3.2,2.8,4.65,4.1a1.09,1.09,0,0,0,1.41,0,37.85,37.85,0,0,0,9.32-11.33.32.32,0,0,0-.06-.39L49,33.19c.14,0,.14,0,.82-.85A12.34,12.34,0,0,1,51,31a1.35,1.35,0,0,1,1.87-.19,2,2,0,0,1,.51.33.29.29,0,0,1,.1.28c-.05.13-.31.19-.57.16s-.67-.28-1-.19-.64,1-.38,1.38a.34.34,0,0,0,.46.08.32.32,0,0,0,.07-.44.71.71,0,0,1,0-.4c.14,0,.39.12.62.17a.65.65,0,0,0,.52,1.05.62.62,0,0,0,1.06.46.32.32,0,0,0-.4-.48.31.31,0,0,1,.08-.1,3.33,3.33,0,0,1,.9-.58c.17-.09.24,0,.27,0a.42.42,0,0,1,.06.46c-.13.28-.24.33-2.84,2.46a.32.32,0,0,0,0,.45.33.33,0,0,0,.46,0c2.63-2.15,2.82-2.24,3-2.7a1.08,1.08,0,0,0-.19-1.16,1.09,1.09,0,0,0-.06-.58,1.53,1.53,0,0,0-.5-.56,1.07,1.07,0,0,0-.67-.69c.55-.63,1.12-1.3,1.62-2a1.48,1.48,0,0,0,.3-.55.79.79,0,0,0-1.13-.93c-.36.15-.39.24-3.29,3.09a2.3,2.3,0,0,0-1.25.61c-.52.39-1.59,1.83-1.94,2.17a.29.29,0,0,0-.08.19c-.12-.1-.11-.1-.18-.13a.32.32,0,0,0-.52,0l-4.74,6.42c-.93-2.06-2.44-3.87-3.36-5.85a.37.37,0,0,0-.12-.13,59.1,59.1,0,0,0-7.92-4.32c-.05-.62-.21-1.9-.25-2.39,1.52-.68,2.05-3.07,1.82-4.73a1,1,0,0,0-.06-.25A1.41,1.41,0,0,0,35,20.39a.33.33,0,0,0-.28-.38c-.43,0-.58-.16-.59-.19s0-.05.11-.17a3.17,3.17,0,0,0,.64-.7,3.61,3.61,0,0,0,.15-.61A.33.33,0,0,0,35,18a.32.32,0,0,0-.45,0c-.34.29-.49.3-.53.3s0,0,0,0,.09-1-.77-1a1.19,1.19,0,0,0-.45.1c-.31.11-.27.06-.64-.18-.74-.45-1.37-.15-2-.09s-1.28-.23-1.74.47ZM10.74,56.85l1-.13a29,29,0,0,0,1.82,2.75,1.54,1.54,0,0,0,.67.52.93.93,0,0,0,.75-.13.81.81,0,0,0,1.1,0,.82.82,0,0,0,1.13-.45c.74.37,1.45-.55.85-1.31-.44-.55-1-1.25-1.52-1.89.34,0,.62,0,1.1-.08.74,1.86,1.32,2.75,2,4.46-2.46.46-4.36.66-6.8,1a16.2,16.2,0,0,1-2.1-4.66ZM13.5,69.32a.85.85,0,0,1,.44-.39c.29-.15.27-.2.1-.47,0-.09-.1-.18-.14-.27a1.08,1.08,0,0,1,.11-.9,2.68,2.68,0,0,1,.54-.61.21.21,0,0,1,.3,0,.2.2,0,0,1,0,.3,2.39,2.39,0,0,0-.45.51.64.64,0,0,0-.08.54c.1.25.68.83-.18,1.27-.05,0-.25.13-.23.19a.22.22,0,0,1,.14.38c-.62.53-.54.73-.43,1a2.16,2.16,0,0,1,0,1.66.21.21,0,1,1-.39-.16,1.77,1.77,0,0,0,0-1.34,1.25,1.25,0,0,1-.11-.39,1.2,1.2,0,0,1,.44-.93.54.54,0,0,1,0-.43ZM10.36,81.44a.21.21,0,0,1-.14-.27l.54-1.8a.21.21,0,0,1,.26-.14.21.21,0,0,1,.14.27l-.54,1.8a.21.21,0,0,1-.26.14Zm1.35-1.21-.24.92a.22.22,0,0,1-.27.15.22.22,0,0,1-.15-.26l.25-.92a.21.21,0,0,1,.26-.15A.21.21,0,0,1,11.71,80.23Zm7.11-15.44L12.24,84.71a.21.21,0,0,1-.2.15.21.21,0,0,1-.2-.28l6.57-19.92a.23.23,0,0,1,.28-.14A.23.23,0,0,1,18.82,64.79Zm7.82,5.54L26.25,72a.21.21,0,0,1-.26.16.22.22,0,0,1-.16-.26l.39-1.68a.21.21,0,0,1,.26-.16A.22.22,0,0,1,26.64,70.33Zm.53,1.81a.21.21,0,0,1-.21.18.22.22,0,0,1-.21-.25l.06-.45a.22.22,0,0,1,.43.06Zm26.9-41a1.26,1.26,0,0,0-.19-.36,1.21,1.21,0,0,1,.44.22l-.25.14Zm.4.88a4.42,4.42,0,0,0-.76.47.39.39,0,0,0-.14.08.42.42,0,0,1-.37,0,1,1,0,0,1,.29-.38l1.21-.7a1,1,0,0,1,.22.26.24.24,0,0,1,0,.09A1.18,1.18,0,0,0,54.47,32Zm.91-4.6a.32.32,0,0,1,.26,0,.21.21,0,0,1,0,.16,25.79,25.79,0,0,1-2.14,2.67.29.29,0,0,0-.07.18,7.65,7.65,0,0,0-.81-.4c2.61-2.56,2.55-2.54,2.74-2.61ZM31.57,82.47a.23.23,0,0,1-.22-.2L30.47,66a.21.21,0,0,1,.2-.23.22.22,0,0,1,.23.2l.88,16.23A.21.21,0,0,1,31.57,82.47Zm1-17a1.17,1.17,0,0,0,0-.74.23.23,0,0,1,.14-.27.22.22,0,0,1,.27.14,1.7,1.7,0,0,1,0,1,.22.22,0,0,1-.27.15A.24.24,0,0,1,32.61,65.47Zm.28,14,1.36-.34a.2.2,0,0,1,.25.16.21.21,0,0,1-.15.26L33,79.83a.21.21,0,0,1-.26-.15A.21.21,0,0,1,32.89,79.42Zm.55-16a.21.21,0,0,1,.21-.22.21.21,0,0,1,.22.2L34,65.33a.2.2,0,0,1-.2.22.21.21,0,0,1-.22-.2Zm1.19,16.75L33,80.53a.21.21,0,0,1-.21-.17.2.2,0,0,1,.17-.25l1.6-.32a.2.2,0,0,1,.25.16.21.21,0,0,1-.16.26ZM43,40.46a.32.32,0,0,0,.4.21.31.31,0,0,0,.21-.4c0-.16-.1-.31-.16-.47l4.76-6.45,3.6,3.32a37.25,37.25,0,0,1-9.06,10.92.44.44,0,0,1-.57,0c-.51-.46-1.06-.91-1.65-1.39a20.17,20.17,0,0,1-4-3.92.32.32,0,1,0-.53.36c.17.26.37.51.57.77a.36.36,0,0,0-.14.26c-.14,5.41,0,10.89.31,16.3a25.16,25.16,0,0,1-8.21-.18,215.91,215.91,0,0,1,.65-28.93,6.09,6.09,0,0,0,2.47-1.36,58.62,58.62,0,0,1,7.57,4.14c1.1,2.31,3,4.5,3.74,6.84ZM28,19a.22.22,0,0,1,.21-.21.21.21,0,0,1,.21.21V19a.21.21,0,0,1-.21.21A.21.21,0,0,1,28,19Zm1.08-.64a3,3,0,0,1,2.93,0,.21.21,0,0,1-.11.4.19.19,0,0,1-.1,0,2.6,2.6,0,0,0-2.51,0,.22.22,0,0,1-.29-.09.2.2,0,0,1,.08-.28Z" transform="translate(0 -2.5)"/><path d="M6.41,80.89a.31.31,0,0,0,.3-.23l3.63-12.74a.32.32,0,0,0-.22-.4.32.32,0,0,0-.4.22L6.09,80.48a.33.33,0,0,0,.32.41Z" transform="translate(0 -2.5)"/><path d="M5,76.34a.32.32,0,0,0,.31-.23L7,70.68a.33.33,0,0,0-.21-.41.32.32,0,0,0-.4.21l-1.7,5.44A.33.33,0,0,0,5,76.34Z" transform="translate(0 -2.5)"/><path d="M7.1,42.18a.32.32,0,0,0-.44.11,7,7,0,0,0-1,4.34.31.31,0,0,0,.31.29.32.32,0,0,0,.32-.35,6.43,6.43,0,0,1,.88-4,.32.32,0,0,0-.11-.44Z" transform="translate(0 -2.5)"/><path d="M4.6,43A2.77,2.77,0,0,0,4,45.36a.32.32,0,0,0,.38.25.33.33,0,0,0,.25-.38,2.14,2.14,0,0,1,.44-1.81.32.32,0,0,0,0-.45.31.31,0,0,0-.45,0Z" transform="translate(0 -2.5)"/><path d="M53.9,64.73a.32.32,0,0,0,.24.39l2.52.59,2,.28a3.51,3.51,0,0,0,1.58,3.63h0a4,4,0,0,0,3.85.18,2.73,2.73,0,0,0,1.53-2.92v-.21a3.45,3.45,0,0,0-.27-1.39l.11-.07a2.72,2.72,0,0,0,1.2-2.15c0-.24,0-.48.07-.72a.32.32,0,0,0-.29-.35.32.32,0,0,0-.35.29c0,.24,0,.49-.07.72a2.08,2.08,0,0,1-1,1.69l0,0a3.51,3.51,0,0,0-6.21.66l-2-.3-2.49-.58a.32.32,0,0,0-.39.24Zm8.79-.64A.21.21,0,0,1,63,64a2.49,2.49,0,0,1,1.44,1.69.21.21,0,0,1-.31.24c-.14-.09-.07-.2-.27-.59a1.92,1.92,0,0,0-1-.94A.23.23,0,0,1,62.69,64.09Zm-1,1a.33.33,0,0,1,.32-.32.32.32,0,0,1,.32.33s0,1.22,0,1.15h.93a.32.32,0,0,1,.31.33.31.31,0,0,1-.32.31h-.93v1a.32.32,0,0,1-.32.31.31.31,0,0,1-.32-.32V66.85h-.92a.32.32,0,0,1-.18-.59c.11-.08.14-.05,1.1-.05,0,0,0-1.22,0-1.15Z" transform="translate(0 -2.5)"/><path d="M47.93,63.25c.84,1.18,3.81,1.49,4.4,1.54a.32.32,0,1,0,.06-.64c-1.56-.13-3.45-.58-3.94-1.27A3,3,0,0,1,48,60.8a31,31,0,0,1,.08-4.87c0-1.34,1.46-2.34,2.93-2.52l4.06-.68a.32.32,0,0,0,.26-.37A.31.31,0,0,0,55,52.1l-4,.68c-1.75.21-3.46,1.46-3.48,3.13a49.2,49.2,0,0,0-.08,5.26,4.06,4.06,0,0,0,.56,2.08Z" transform="translate(0 -2.5)"/><path d="M56,52.29a.32.32,0,0,0,.36.28l4-.49a6.54,6.54,0,0,1,4.9,1.1A2,2,0,0,1,66,54.69a43.55,43.55,0,0,1,.17,6.64.31.31,0,0,0,.3.33.32.32,0,0,0,.34-.3,43.28,43.28,0,0,0-.17-6.69,2.59,2.59,0,0,0-1-2,7.08,7.08,0,0,0-5.4-1.25l-4,.48a.34.34,0,0,0-.29.36Z" transform="translate(0 -2.5)"/><path d="M55.27,56.47a.31.31,0,0,0-.32-.32l-5.8.12a.32.32,0,0,0-.31.33.32.32,0,0,0,.33.31L55,56.79A.31.31,0,0,0,55.27,56.47Z" transform="translate(0 -2.5)"/><path d="M54.75,58.59a.33.33,0,0,0-.32-.32c-1.59,0-3.2,0-4.79-.16a.33.33,0,0,0-.35.29.32.32,0,0,0,.29.35c1.6.13,3.23.19,4.85.17a.33.33,0,0,0,.32-.33Z" transform="translate(0 -2.5)"/><path d="M53.49,60.09a12.66,12.66,0,0,1-2.46,0,.33.33,0,0,0-.35.29.32.32,0,0,0,.29.35,13.19,13.19,0,0,0,2.59-.05.32.32,0,0,0,.28-.36.31.31,0,0,0-.35-.27Z" transform="translate(0 -2.5)"/><path d="M56.66,61.15c.72.06,4.23.41,6,.41a.32.32,0,0,0,.31-.25c.12-.19,0,0-.08-3.17a31.05,31.05,0,0,0-.16-3.53.33.33,0,0,0-.43-.27c-.28.08-4.29,1-5.72,1.21a.33.33,0,0,0-.26.34c.08,1.47,0,3.49.09,5a.32.32,0,0,0,.29.3ZM57,60c0-1.09,0-2.29,0-3.4.57.43,1.19.92,1.81,1.43-.61.65-1.2,1.3-1.78,2Zm.38.54c.61-.71,1.24-1.41,1.89-2.09,1,.81,1.88,1.65,2.64,2.41-1.9-.08-3-.17-4.53-.32Zm4.77-5c.11,1.79,0,3.11.15,4.76-.75-.74-1.66-1.56-2.59-2.36.79-.82,1.61-1.62,2.44-2.4Zm-.42-.48c-.86.8-1.7,1.62-2.51,2.47-.66-.55-1.31-1.07-1.93-1.53,1.23-.24,3.23-.67,4.44-.94Z" transform="translate(0 -2.5)"/><path d="M64.82,12.12a2.12,2.12,0,0,0,2-2.2,2,2,0,1,0-4.07,0A2.13,2.13,0,0,0,64.82,12.12Z" transform="translate(0 -2.5)"/><path d="M53.66,9a2.21,2.21,0,0,1,1.72,1.34.32.32,0,0,0,.62-.11,1.9,1.9,0,0,1,1.35-1.75.32.32,0,0,0-.17-.62,2.55,2.55,0,0,0-1.64,1.5,2.94,2.94,0,0,0-1.8-1,.31.31,0,0,0-.35.28.31.31,0,0,0,.27.36Z" transform="translate(0 -2.5)"/><path d="M67.52,6a3.74,3.74,0,0,1,1.64,1.22l0,0a.32.32,0,0,0,.45.06.33.33,0,0,0,.06-.44s0,0,0,0a.58.58,0,0,1,.08-.65,2.21,2.21,0,0,1,.8-.58A.32.32,0,1,0,70.25,5a2.27,2.27,0,0,0-1.2,1.12,4.46,4.46,0,0,0-1.31-.78.32.32,0,1,0-.22.6Z" transform="translate(0 -2.5)"/><path d="M91.8,17.09a5.54,5.54,0,1,0,5.39,5.54A5.48,5.48,0,0,0,91.8,17.09Zm0,10.44a4.9,4.9,0,1,1,4.75-4.9A4.83,4.83,0,0,1,91.8,27.53Z" transform="translate(0 -2.5)"/><path d="M73.94,20H85.13v1.69H73.94Z" transform="translate(0 -2.5)"/><path d="M76.22,23.49h6.89v1.7H76.22Z" transform="translate(0 -2.5)"/><path d="M73.23,15.63a.33.33,0,0,0,.32.31l25.78-1.23a.33.33,0,0,0,.31-.34.32.32,0,0,0-.34-.3L73.54,15.3a.32.32,0,0,0-.31.33Z" transform="translate(0 -2.5)"/><path d="M70.33,35.86v-6a40.57,40.57,0,0,0-3.58,2.67l3.58,3.35Z" transform="translate(0 -2.5)"/><path d="M63.6,34.85c.8-.82,1.63-1.61,2.51-2.35L63.6,30.16Z" transform="translate(0 -2.5)"/><path d="M63.77,35.28l5.87.51-3.22-3c-.92.8-1.81,1.63-2.65,2.5Z" transform="translate(0 -2.5)"/><path d="M66.43,32.21a40.81,40.81,0,0,1,3.74-2.79L64,30Z" transform="translate(0 -2.5)"/><path d="M83,29.71l-6.29.55c1,.74,1.91,1.51,2.84,2.31Z" transform="translate(0 -2.5)"/><path d="M83.12,36V30.21l-3.21,2.65q1.66,1.47,3.19,3.07l0,0Z" transform="translate(0 -2.5)"/><path d="M76.38,35.23l2.87-2.38c-.93-.81-1.89-1.59-2.87-2.33Z" transform="translate(0 -2.5)"/><path d="M79.58,33.13l-3,2.45,6.06.53c-1-1-2-2-3.1-3Z" transform="translate(0 -2.5)"/><path d="M95.73,30.21l-6.23.54c1,.78,2,1.56,3,2.37,1.1-.95,2.18-1.92,3.22-2.91Z" transform="translate(0 -2.5)"/><path d="M89.16,35.88h0c1-.8,2-1.63,3-2.47-1-.82-2-1.6-3-2.37Z" transform="translate(0 -2.5)"/><path d="M92.52,33.68c-1,.83-1.94,1.63-2.93,2.41l6,.52a35.75,35.75,0,0,0-3.12-2.93Z" transform="translate(0 -2.5)"/><path d="M95.9,30.64c-1,.94-2,1.86-3.05,2.75a35.76,35.76,0,0,1,3.05,2.87Z" transform="translate(0 -2.5)"/><path d="M91.41,21.74a1.22,1.22,0,1,0,0-2.43,1.22,1.22,0,0,0,0,2.43Z" transform="translate(0 -2.5)"/><path d="M91.54,22.3c-2.1,0-3.49,1.54-3.17,3H94.7c.33-1.51-1.09-3-3.16-3Z" transform="translate(0 -2.5)"/><path d="M88.77,13.69A.85.85,0,0,0,88.43,12l-.1,0a.85.85,0,0,0,.44,1.65Z" transform="translate(0 -2.5)"/><path d="M92.28,13.3a.89.89,0,0,0,.64-1,.88.88,0,0,0-1-.67l-.11,0a.86.86,0,0,0,.45,1.65Z" transform="translate(0 -2.5)"/><path d="M95.7,13.08a.86.86,0,0,0-.34-1.68l-.1,0a.85.85,0,0,0,.44,1.65Z" transform="translate(0 -2.5)"/><path d="M60,42.76V32.56a.32.32,0,0,0-.32-.32.32.32,0,0,0-.32.32v10.2a.32.32,0,0,0,.32.33A.32.32,0,0,0,60,42.76Z" transform="translate(0 -2.5)"/><path d="M82.28,10.61a9.77,9.77,0,0,0,.07-1.07l-1.28-.92a.32.32,0,0,0-.36-.19c-2.12.38-3.56.72-5.87,1.2a.32.32,0,0,0-.26.32l0,1.44-1.93.2V4.33a1.83,1.83,0,0,0-2.07-1.81L52.84,4.85a1.84,1.84,0,0,0-1.6,1.82v14a1.84,1.84,0,0,0,1.6,1.82l6.54.86v7a.33.33,0,0,0,.65,0V23.43C71.51,25,70.82,24.84,70.87,24.84A1.84,1.84,0,0,0,72.71,23V12.23L98.58,9.6a1.25,1.25,0,0,1,1.4,1.19c0,38.92,0,37.47,0,37.57a1.27,1.27,0,0,1-1.42,1.11L63.08,46a.32.32,0,0,0-.35.28.33.33,0,0,0,.29.36L76.5,47.94v5a1.47,1.47,0,1,0,1.71,1.45A1.45,1.45,0,0,0,77.14,53V48c14.66,1.45,21.38,2.12,21.55,2.12a1.86,1.86,0,0,0,.52-.07h0a3.18,3.18,0,0,0,2.25-1.65,8.2,8.2,0,0,0,.59-4.09q-.45-15.58-.32-31.18c0-2.94-.86-4.64-3.8-4.11L82.28,10.61ZM51.88,6.67a1.19,1.19,0,0,1,1-1.18L70.71,3.15a1.2,1.2,0,0,1,1.35,1.18C72,24.06,72.14,23,72,23.45c-2.1-3.34-4-6.14-5.79-8.54a.34.34,0,0,0-.48,0l-2.63,2.48c.68,1.88,1.62,4.12,2.41,5.76a.22.22,0,1,1-.39.19A65.89,65.89,0,0,1,62.47,17c-.81-1.73-1.48-3.16-2.16-4.55a.31.31,0,0,0-.49-.11c-2.63,2.23-5.55,6.19-7.83,8.88-.21-.48-.06.16-.11-14.5Z" transform="translate(0 -2.5)"/><path d="M96.83,45.49l.34-5.38L63.67,39l-.21,3.31Zm-9.76-2.33c-4.67-.24-9-.4-14-.78a.22.22,0,1,1,0-.43c5,.39,9.39.54,14,.78a.2.2,0,0,1,.2.23.2.2,0,0,1-.22.2ZM65.2,39.93c9.62.43,19.47,1.14,29.18,1.6a.22.22,0,0,1,.2.22.21.21,0,0,1-.22.2c-9.7-.45-19.56-1.17-29.18-1.59a.22.22,0,1,1,0-.43Z" transform="translate(0 -2.5)"/><path d="M20.77,17.78l1.5,1.68a.32.32,0,0,0,.56-.19l.09-1.48h.19a1.6,1.6,0,0,0,1.57-1.53L25,11.91a1.64,1.64,0,0,0-1.4-1.74l-8-.94a1.71,1.71,0,0,0-1.95,1.62c-.05,1.68-.15,3.49-.19,5.17a1.75,1.75,0,0,0,1.78,1.75Zm-3.16-3.32a.21.21,0,0,1,.23-.19l3.91.27a.21.21,0,0,1,.19.23.2.2,0,0,1-.22.19l-3.91-.27A.21.21,0,0,1,17.61,14.46Zm-1-3,5.85.81a.23.23,0,0,1,.18.25.23.23,0,0,1-.24.18l-5.85-.82a.21.21,0,1,1,.06-.42Z" transform="translate(0 -2.5)"/><path d="M100.12,55.2H96.3a.32.32,0,0,0-.32.32V65.68a.32.32,0,0,0,.32.32h8.4a.32.32,0,0,0,.32-.32V60.82l.36-.25,2.8-2.08a6,6,0,0,0-1.6-2.1.12.12,0,0,1-.06-.08L105,57.46V55.52a.32.32,0,0,0-.32-.32h-2.78a.32.32,0,1,0,0,.64h2.46v2.08l-1.93,1.39A8.88,8.88,0,0,1,104,61.57l.41-.29v4.09H96.63V55.85h3.49a.33.33,0,0,0,.33-.33.33.33,0,0,0-.33-.32Z" transform="translate(0 -2.5)"/><path d="M98.88,62.8h1.84a.32.32,0,0,0,0-.64H98.88a.32.32,0,0,0-.32.32A.32.32,0,0,0,98.88,62.8Z" transform="translate(0 -2.5)"/><path d="M101.94,58H97.35a.32.32,0,0,0-.33.32.32.32,0,0,0,.33.32h4.59a.32.32,0,0,0,0-.64Z" transform="translate(0 -2.5)"/><path d="M100.34,60.62a.32.32,0,0,0,.32-.32.32.32,0,0,0-.32-.32H98.71a.32.32,0,0,0-.32.32.32.32,0,0,0,.32.32Z" transform="translate(0 -2.5)"/><path d="M108.52,58.24A1.38,1.38,0,0,0,106.89,56l0,0a6,6,0,0,1,1.68,2.18Z" transform="translate(0 -2.5)"/><path d="M102,61.67h0c.46,0,1,0,1.55,0a8.24,8.24,0,0,0-1.35-2l-.52,1.6a.32.32,0,0,0,.3.42Z" transform="translate(0 -2.5)"/><path d="M0,92.92a.32.32,0,0,0,.32.32H6.73a.32.32,0,1,0,0-.64H.32A.33.33,0,0,0,0,92.92Z" transform="translate(0 -2.5)"/><path d="M100.14,5.47a8.72,8.72,0,0,1,4.17,8.64.33.33,0,0,0,.27.36.32.32,0,0,0,.37-.26,9.25,9.25,0,0,0-4.49-9.29A.32.32,0,0,0,100,5a.31.31,0,0,0,.12.43Z" transform="translate(0 -2.5)"/><path d="M106.12,9.83a.32.32,0,0,0,.32.29.31.31,0,0,0,.32-.34,6.48,6.48,0,0,0-1.89-4,.32.32,0,0,0-.45.46,5.75,5.75,0,0,1,1.7,3.6Z" transform="translate(0 -2.5)"/><path d="M109.06,64.92a.32.32,0,0,0-.29-.34.32.32,0,0,0-.35.29,6.29,6.29,0,0,1-5.16,5.55.32.32,0,0,0,.09.63,7,7,0,0,0,5.71-6.13Z" transform="translate(0 -2.5)"/><path d="M106.77,71.81a.32.32,0,1,0,.14.63A4.13,4.13,0,0,0,110,68.87a.32.32,0,0,0-.29-.34.31.31,0,0,0-.35.29,3.48,3.48,0,0,1-2.59,3Z" transform="translate(0 -2.5)"/><path d="M75,68.8a.31.31,0,0,0-.37.18A14.33,14.33,0,0,0,76,82.84a1.61,1.61,0,0,0-1.11,2l2,7.12a1.7,1.7,0,0,0,.34.62H76.16a.32.32,0,1,0,0,.64h18.1a.32.32,0,0,0,.32-.32.32.32,0,0,0-.32-.32H87.53a1.7,1.7,0,0,0,.34-.62l2-7.12a1.61,1.61,0,0,0-1.35-2A8.21,8.21,0,0,0,90.4,78.5a.32.32,0,0,0-.64-.1,7.4,7.4,0,0,1-2.07,4.37H83.22a9.74,9.74,0,0,0,2.51-5.86c1.36-1.69,2.83-3.55,3.11-5.87a14.09,14.09,0,0,1,1.09,6,.31.31,0,0,0,.32.34.32.32,0,0,0,.32-.29,15.7,15.7,0,0,0-1.81-7.76.31.31,0,0,0-.38-.16.34.34,0,0,0-.22.36A5.1,5.1,0,0,1,88,71.82a11.68,11.68,0,0,1-2.32,4.1,18,18,0,0,0-1-3.81c-.54-1.61-1-3.48-.19-5a2.69,2.69,0,0,1,.15-.27.31.31,0,0,0-.12-.43.31.31,0,0,0-.43.11c-.09.14-.18.32-.17.29-1.79,3-5,4.74-5.42,9.1-.5-.56-1-1.14-1.47-1.73a7.27,7.27,0,0,1-1.78-5A.3.3,0,0,0,75,68.8Zm2.15,15.52a.22.22,0,0,1,.28.13,41.17,41.17,0,0,1,1.36,4.89.22.22,0,0,1-.17.25.2.2,0,0,1-.25-.16A39.84,39.84,0,0,0,77,84.59a.21.21,0,0,1,.13-.27Zm2.66,3.27a.21.21,0,0,1-.11.28.22.22,0,0,1-.28-.1,2.52,2.52,0,0,1-.16-1.58.22.22,0,0,1,.26-.16.23.23,0,0,1,.16.26,2.08,2.08,0,0,0,.13,1.3Zm4.93,3.16a.2.2,0,0,1,.29,0,.31.31,0,0,0,.28.09c.53-.06.48-.72.06-1a.21.21,0,0,1,.19-.37.4.4,0,0,0,.46-.22.39.39,0,0,0-.2-.47.22.22,0,0,1-.11-.28.22.22,0,0,1,.28-.11,1.3,1.3,0,0,0,.49.14.34.34,0,0,0,.3-.14c.1-.23-.26-.63-.12-1.06a1.32,1.32,0,0,1,.41-.53c.08-.09.11-.21.09-.23a.21.21,0,0,1,0-.3c.27-.28.71.3.25.82-.32.34-.43.28-.27.76a1,1,0,0,1,.05.71.76.76,0,0,1-.73.4.77.77,0,0,1-.5.9.9.9,0,0,1-.59,1.46.73.73,0,0,1-.67-.27A.21.21,0,0,1,84.74,90.75ZM83.43,68.61c-.22,3,1.75,5.37,1.67,8.17a9.42,9.42,0,0,1-2.73,6h-.25a7.84,7.84,0,0,0-1.42-4.16,21.2,21.2,0,0,0-1.62-2c.13-3.74,2.43-5.56,4.35-8ZM80.16,79a7,7,0,0,1,1.31,3.8H76.75a13.68,13.68,0,0,1-2.08-12c.64,3.48,3.69,5.52,5.49,8.2Z" transform="translate(0 -2.5)"/></svg>