<svg id="Layer_1" data-name="Layer 1" xmlns="http://www.w3.org/2000/svg" viewBox="0 0 53.02 56.04"><defs><style>.cls-1{fill:#010101;}</style></defs><path class="cls-1" d="M53.36,63H6.63A3.12,3.12,0,0,1,3.51,59.9V18.29a.59.59,0,0,1,.59-.58H55.89a.58.58,0,0,1,.58.58V59.9A3.12,3.12,0,0,1,53.36,63ZM4.65,18.88v41a2,2,0,0,0,2,2H53.39a2,2,0,0,0,2-2h0v-41Z" transform="translate(-3.49 -6.98)"/><path class="cls-1" d="M55.9,18.88H4.07a.59.59,0,0,1-.58-.59V10.12A3.1,3.1,0,0,1,6.57,7H53.39a3.12,3.12,0,0,1,3.12,3.11v8.2a.59.59,0,0,1-.58.59ZM4.66,17.71H55.31V10.12a1.94,1.94,0,0,0-1.92-2H6.63a1.94,1.94,0,0,0-1.94,1.94Z" transform="translate(-3.49 -6.98)"/><path class="cls-1" d="M9.73,15.84a2.92,2.92,0,1,1,2.92-2.92A2.92,2.92,0,0,1,9.73,15.84Zm0-4.67a1.75,1.75,0,1,0,1.75,1.75,1.75,1.75,0,0,0-1.75-1.75Z" transform="translate(-3.49 -6.98)"/><path class="cls-1" d="M17.36,15.84a2.92,2.92,0,1,1,2.92-2.92A2.92,2.92,0,0,1,17.36,15.84Zm0-4.67a1.75,1.75,0,1,0,1.75,1.75,1.75,1.75,0,0,0-1.75-1.75Z" transform="translate(-3.49 -6.98)"/><path class="cls-1" d="M25,15.84a2.92,2.92,0,1,1,2.92-2.92A2.92,2.92,0,0,1,25,15.84Zm0-4.67a1.75,1.75,0,1,0,1.75,1.75A1.75,1.75,0,0,0,25,11.17Z" transform="translate(-3.49 -6.98)"/><path class="cls-1" d="M23.56,39.09a.58.58,0,0,1-.41-.18L8.45,24.22a.58.58,0,0,1,.82-.83h0L24,38.06a.6.6,0,0,1,.05.83A.61.61,0,0,1,23.56,39.09Z" transform="translate(-3.49 -6.98)"/><path class="cls-1" d="M8.86,39.09a.59.59,0,0,1-.41-.18.57.57,0,0,1,0-.82l14.67-14.7a.58.58,0,0,1,.82,0h0a.6.6,0,0,1,0,.83L9.28,38.89A.62.62,0,0,1,8.86,39.09Z" transform="translate(-3.49 -6.98)"/><path class="cls-1" d="M25.74,43.69H8.86a.58.58,0,0,1,0-1.16H25.74a.58.58,0,1,1,0,1.16Z" transform="translate(-3.49 -6.98)"/><path class="cls-1" d="M25.74,48.33H8.86a.59.59,0,0,1,0-1.17H25.74a.59.59,0,0,1,0,1.17Z" transform="translate(-3.49 -6.98)"/><path class="cls-1" d="M25.74,53H8.86a.58.58,0,0,1,0-1.16H25.74a.58.58,0,0,1,0,1.16Z" transform="translate(-3.49 -6.98)"/><path class="cls-1" d="M25.74,57.59H8.86A.58.58,0,0,1,8.28,57a.59.59,0,0,1,.58-.59H25.74a.59.59,0,0,1,.58.59A.58.58,0,0,1,25.74,57.59Z" transform="translate(-3.49 -6.98)"/><path class="cls-1" d="M51.1,57.59a.6.6,0,0,1-.34-.11l-20-14.67a.59.59,0,0,1-.18-.81.58.58,0,0,1,.81-.17l.06,0,20,14.67a.59.59,0,0,1,.12.82A.6.6,0,0,1,51.1,57.59Z" transform="translate(-3.49 -6.98)"/><path class="cls-1" d="M31.15,57.59a.58.58,0,0,1-.34-1.05l20-14.67a.58.58,0,0,1,.82.08.59.59,0,0,1-.07.82l-.06,0-20,14.67A.57.57,0,0,1,31.15,57.59Z" transform="translate(-3.49 -6.98)"/><path class="cls-1" d="M23.56,39.09H8.86a.58.58,0,0,1-.58-.59V23.81a.58.58,0,0,1,.58-.58h14.7a.58.58,0,0,1,.58.58V38.5A.58.58,0,0,1,23.56,39.09ZM9.45,37.92H23V24.39H9.45Z" transform="translate(-3.49 -6.98)"/><path class="cls-1" d="M51.1,57.59h-20a.58.58,0,0,1-.58-.58V42.34a.59.59,0,0,1,.58-.59h20a.59.59,0,0,1,.59.59V57A.58.58,0,0,1,51.1,57.59ZM31.73,56.42H50.52V42.92H31.73Z" transform="translate(-3.49 -6.98)"/><path class="cls-1" d="M51.1,37.66h-20a.58.58,0,0,1-.58-.58V23.81a.58.58,0,0,1,.58-.58h20a.58.58,0,0,1,.59.58V37.08A.58.58,0,0,1,51.1,37.66ZM31.73,36.49H50.52V24.39H31.73Z" transform="translate(-3.49 -6.98)"/><path class="cls-1" d="M46.77,33.83H35.46a.59.59,0,0,1-.59-.58.6.6,0,0,1,.59-.59H46.77a.6.6,0,0,1,.59.59A.59.59,0,0,1,46.77,33.83Z" transform="translate(-3.49 -6.98)"/><path class="cls-1" d="M46.77,28.19H35.46a.58.58,0,1,1,0-1.16H46.77a.58.58,0,1,1,0,1.16Z" transform="translate(-3.49 -6.98)"/></svg>